<svg width="56" height="67" viewBox="0 0 56 67" fill="none" xmlns="http://www.w3.org/2000/svg">
<path d="M0.263184 62.3382V18.0854C1.22129 15.6331 2.05059 14.9342 3.85779 14.4466V8.46013C4.46467 4.94475 6.95659 2.47368 10.6751 2.23892C14.3937 2.00416 21.5829 2.23892 21.5829 2.23892C23.6539 2.44766 25.4254 3.17797 26.9128 5.29084C28.4003 7.40371 31.3751 14.3292 31.3751 14.3292H37.6967V9.98609H40.4236L42.7787 3.17797L46.8691 0.947722C48.9913 -0.340601 49.8657 -0.290271 50.9595 0.947722L52.6948 3.6475C52.9864 4.44632 52.9164 4.88478 52.199 5.64298L48.1086 7.87323L47.4889 9.86871H49.3481V14.3292C52.9827 14.3664 54.2931 15.2012 55.1739 18.3202V62.4556C54.0791 65.5742 52.8507 65.744 50.7116 66.2118H4.72545C2.49432 66.2118 0.263184 63.3947 0.263184 62.3382Z" fill="#FFD700"/>
<path d="M2.61829 62.2209C2.61829 63.3947 3.98176 63.9816 4.47757 63.9816H50.7116C52.0751 63.9816 52.8188 62.9252 52.8188 61.9861V18.555C52.8188 17.6159 52.0751 16.4421 50.5877 16.4421H29.8877C29.8877 16.4421 26.0452 8.10804 25.1775 6.81682C24.3099 5.52559 23.6901 4.35181 21.2111 4.35181H10.4273C7.82427 4.35181 6.08895 6.69944 6.08895 8.46016V16.4421H4.60152C3.73386 16.4421 2.61829 17.4985 2.61829 18.6723V62.2209Z" fill="white"/>
<path fill-rule="evenodd" clip-rule="evenodd" d="M12.2865 27.3586L14.1458 25.5979L20.7153 31.8191H34.7218L41.2913 25.5979L43.1506 27.3586L36.7051 33.4625V46.9613L43.1506 53.0652L41.2913 54.8259L34.7218 48.6047H20.7153L14.1458 54.8259L12.2865 53.0652L18.732 46.9613V33.4625L12.2865 27.3586ZM34.226 34.1667H21.2111V46.3744H34.226V34.1667Z" fill="#FFD700"/>
<path d="M39.9278 12.0989H46.993V14.3291H39.9278V12.0989Z" fill="white"/>
<path d="M8.44405 16.4421V9.51657C8.89578 7.72515 10.7991 6.58206 11.5429 6.58204C12.2866 6.58202 19.3518 6.58207 20.3434 6.58204C21.3351 6.58201 22.836 7.66614 23.4422 9.51657L26.541 16.4421H8.44405Z" fill="#FFD700"/>
<path d="M10.7991 14.2118V9.98607C10.9104 9.03192 11.2617 8.88118 12.0386 8.81226C12.0386 8.81226 18.4841 8.81223 19.4757 8.81226C20.4673 8.81228 20.6361 8.96448 21.0871 9.63393L23.0703 14.2118H10.7991Z" fill="white"/>
<path d="M42.9027 9.86881L44.638 4.70403L49.1003 2.23901L50.4637 4.11712L46.1254 6.46475L45.1338 9.86881H42.9027Z" fill="white"/>
</svg>
