<svg width="141" height="141" viewBox="0 0 141 141" fill="none" xmlns="http://www.w3.org/2000/svg">
<path d="M140.998 70.4992C140.998 140.998 140.998 140.998 70.4992 140.998C-0.000112577 140.998 0 140.998 0 70.4992C0 0 -6.25425e-06 0 70.4992 0C140.998 0 140.998 2.5017e-05 140.998 70.4992Z" fill="#D9D9D9"/>
<path d="M30.7157 84.4346H108.972C115.586 84.4346 115.586 86.0086 115.586 88.3695C115.586 90.7304 113.932 90.9927 108.972 90.9927H30.7157C25.7557 90.9927 24.6535 90.468 24.6535 88.3695C24.6535 86.2709 23.5514 84.4346 30.7157 84.4346Z" fill="black"/>
<path d="M30.7157 84.4346C37.88 84.4346 102.359 84.4346 108.972 84.4346M30.7157 84.4346C23.5514 84.4346 24.6535 86.2709 24.6535 88.3695C24.6535 90.468 25.7557 90.9927 30.7157 90.9927M30.7157 84.4346H108.972M108.972 84.4346C115.586 84.4346 115.586 86.0086 115.586 88.3695C115.586 90.7304 113.932 90.9927 108.972 90.9927M108.972 90.9927C104.012 90.9927 35.6756 90.9927 30.7157 90.9927M108.972 90.9927H30.7157" stroke="black"/>
<path d="M30.7157 50.0048H108.972C115.586 50.0048 115.586 51.5787 115.586 53.9396C115.586 56.3005 113.932 56.5629 108.972 56.5629H30.7157C25.7557 56.5629 24.6535 56.0382 24.6535 53.9396C24.6535 51.8411 23.5514 50.0048 30.7157 50.0048Z" fill="black"/>
<path d="M30.7157 50.0048C37.88 50.0048 102.359 50.0048 108.972 50.0048M30.7157 50.0048C23.5514 50.0048 24.6535 51.8411 24.6535 53.9396C24.6535 56.0382 25.7557 56.5629 30.7157 56.5629M30.7157 50.0048H108.972M108.972 50.0048C115.586 50.0048 115.586 51.5787 115.586 53.9396C115.586 56.3005 113.932 56.5629 108.972 56.5629M108.972 56.5629C104.012 56.5629 35.6756 56.5629 30.7157 56.5629M108.972 56.5629H30.7157" stroke="black"/>
<path d="M30.7157 67.2197H108.972C115.586 67.2197 115.586 68.7937 115.586 71.1546C115.586 73.5155 113.932 73.7778 108.972 73.7778H30.7157C25.7557 73.7778 24.6535 73.2531 24.6535 71.1546C24.6535 69.056 23.5514 67.2197 30.7157 67.2197Z" fill="black"/>
<path d="M30.7157 67.2197C37.88 67.2197 102.359 67.2197 108.972 67.2197M30.7157 67.2197C23.5514 67.2197 24.6535 69.056 24.6535 71.1546C24.6535 73.2531 25.7557 73.7778 30.7157 73.7778M30.7157 67.2197H108.972M108.972 67.2197C115.586 67.2197 115.586 68.7937 115.586 71.1546C115.586 73.5155 113.932 73.7778 108.972 73.7778M108.972 73.7778C104.012 73.7778 35.6756 73.7778 30.7157 73.7778M108.972 73.7778H30.7157" stroke="black"/>
</svg>
