<svg width="141" height="141" viewBox="0 0 141 141" fill="none" xmlns="http://www.w3.org/2000/svg">
<path d="M140.998 70.4992C140.998 140.998 140.998 140.998 70.4992 140.998C-0.000112577 140.998 0 140.998 0 70.4992C0 0 -6.25425e-06 0 70.4992 0C140.998 0 140.998 2.5017e-05 140.998 70.4992Z" fill="#D9D9D9"/>
<path d="M34.0834 100.075C34.8315 99.2443 101.535 36.5417 102.749 35.5282C103.963 34.5146 106.52 41.0308 105.306 42.0443C104.092 43.0578 37.0233 104.83 36.2754 105.66C35.5274 106.491 33.3353 100.906 34.0834 100.075Z" fill="black" stroke="black"/>
<path d="M106.067 98.7677C105.29 97.9641 36.4043 37.6674 35.1552 36.6976C33.9061 35.7278 31.5816 42.3305 32.8307 43.3004C34.0798 44.2702 103.298 103.624 104.075 104.427C104.852 105.231 106.845 99.5714 106.067 98.7677Z" fill="black" stroke="black"/>
</svg>
