<svg width="131" height="121" viewBox="0 0 131 121" fill="none" xmlns="http://www.w3.org/2000/svg">
<path d="M2.32331 63.1555C2.10343 79.6467 17.3486 91.8318 24.9987 95.863C14.4443 107.847 20.601 115.79 24.9987 118.264C24.3115 121.424 100.308 121.699 103.332 118.264C115.096 112.327 108.233 100.856 103.332 95.863C124.331 88.1671 129.031 71.5843 128.756 64.2549C132.714 56.4491 127.656 43.87 124.633 38.5561C126.172 27.562 116.387 20.4158 111.303 18.217C106.905 10.5211 95.5443 7.22288 90.4137 6.53575C80.6289 -2.14961 69.6623 -0.289769 65.4021 1.72582C53.6384 -2.78177 44.7423 2.59619 41.7647 5.84861C30.9905 4.52932 22.3418 12.9948 19.3642 17.3924C7.16071 23.6591 5.11764 34.1127 5.62154 38.5561C-2.62405 47.3514 -0.0129453 58.6204 2.32331 63.1555Z" fill="#0DB3D8"/>
<path d="M8.91971 67.0032C12.9875 86.5727 31.5035 93.0226 40.253 93.8014C14.8291 111.804 27.6097 113.866 40.253 113.866H89.7265C114.601 114.965 101.683 100.673 89.7265 94.4885C116.332 87.1224 122.251 73.8287 121.884 68.1026L92.3376 77.7224L123.259 61.781C125.128 54.195 122.113 47.1679 120.373 44.6026L85.054 71.2634L118.724 38.0061C119.053 31.1898 113.547 26.8288 110.753 25.5003L79.2821 64.8043L105.668 20.9653C102.04 15.3583 94.17 13.1319 90.6885 12.7197L71.0365 60.9564L85.054 10.3834C77.9078 4.33668 70.6242 5.93998 67.8757 7.49748L63.8903 60.9564L63.0658 7.49748C53.9406 4.74895 47.9947 8.27623 46.1623 10.3834L56.4693 61.781L40.253 12.17C32.4471 11.9501 27.1974 17.3006 25.5483 20.0033L48.7734 64.8043L19.5016 24.2635C13.5647 28.991 11.9889 33.8376 11.9431 35.6699L42.3144 71.2634L10.0191 43.2284C4.85189 47.5161 6.03375 55.6426 7.27059 59.1699L37.9167 79.0967L8.91971 67.0032Z" fill="#FFD700" stroke="#0DB3D8"/>
<circle cx="65.1934" cy="88.4023" r="19.558" fill="#0DB3D8"/>
<path d="M72.1041 76.4068C73.571 74.4509 77.9715 77.5803 76.2764 80.4488C75.1966 82.2762 70.6371 78.3626 72.1041 76.4068Z" fill="#FFD700"/>
<path d="M47.2229 88.4021C48.3964 95.0519 54.3942 107.856 68.9975 105.874C60.0009 109.655 46.571 100.659 47.2229 88.4021Z" fill="#FFD700"/>
</svg>
