<svg width="56" height="60" viewBox="0 0 56 60" fill="none" xmlns="http://www.w3.org/2000/svg">
<path fill-rule="evenodd" clip-rule="evenodd" d="M25.3863 54.6846C25.2765 53.3166 25.8522 52.3735 26.8655 52.1424C27.8787 51.9113 44.0185 52.1424 44.0185 52.1424C47.606 52.0751 48.9709 51.1697 49.3752 46.827V44.2848H44.0185C40.525 44.2848 38.6617 41.9737 38.6617 38.9693V34.8094C38.811 30.802 39.5703 29.9004 41.62 29.7251H48.4436V24.8718L44.0185 20.4808H11.1793C6.75416 20.4808 5.58965 21.4053 5.58965 26.0274V32.2673C5.58965 34.5783 3.95934 35.2716 2.56192 35.2716C1.16451 35.2716 0.164881 35.0047 0 32.7295V15.1654C0 13.0854 0.388904 12.3628 2.15146 11.4677C2.15146 11.4677 27.9482 0.374624 28.4141 0.143471C28.8799 -0.0876822 29.2609 -0.00337495 30.0444 0.143471L30.1153 0.164649C34.1973 1.38421 36.5079 2.07454 36.4987 3.84117V15.8587H45.6488C47.2792 15.8587 52.8688 21.6363 52.8688 23.023V29.7251C54.6112 29.955 55.6636 30.8806 55.8965 32.2673C56.1294 33.6539 55.8965 41.0493 55.8965 41.0493C55.6862 43.0186 54.8693 43.6156 52.8688 44.2848C52.8688 44.2848 53.1016 45.2093 52.8688 49.8313C52.6359 54.4534 49.1949 56.2284 46.3475 56.3023C43.5001 56.3762 27.8787 56.5335 26.8655 56.3023C25.8522 56.0712 25.6008 55.4068 25.3863 54.6846ZM28.4141 4.99666L6.05548 16.3209L32.8392 15.8587V6.84551L30.0444 4.99666H28.4141ZM43.3198 35.0405V37.8138C43.6967 39.099 44.2309 39.4206 45.6488 39.4315H51.2385C52.6359 39.4315 52.8688 39.2004 52.8688 38.276V35.0405C52.7094 33.7786 52.4059 33.2733 51.0056 33.1916H45.6488C44.2514 33.1916 43.3575 33.7159 43.3198 35.0405Z" fill="#FFD700"/>
<path d="M20.7283 48.4447C22.3899 48.3258 22.897 47.9304 23.2902 46.827V41.0493C23.4062 38.6457 22.7535 37.8844 20.0296 37.8138H8.85028V34.1161L1.39741 40.356L8.85028 44.6257V41.0493H20.0296V48.4447H20.7283Z" fill="#FFD700"/>
<path d="M1.39741 46.827V52.1424C1.50699 54.4838 2.1147 55.6113 5.58965 56.3023H16.0702V60L21.8928 54.2224L16.0702 48.4447V52.1424H7.45287C5.39731 52.3257 5.17692 51.5453 5.12385 49.8313V46.827H1.39741Z" fill="#FFD700"/>
<path d="M12.5767 29.2629C12.5928 27.5281 13.1119 26.9398 15.1386 26.7207H32.1405C33.8567 26.7838 34.5813 27.1275 34.7024 29.2629C34.8808 31.3972 34.2745 32.0189 32.1405 32.2673H15.1386C13.2755 32.2673 12.6259 31.1899 12.5767 29.2629Z" fill="#FFD700"/>
<path d="M43.3198 37.8138V35.0405C43.3575 33.7159 44.2514 33.1916 45.6488 33.1916H51.0056C52.4059 33.2733 52.7094 33.7786 52.8688 35.0405V38.276C52.8688 39.2004 52.6359 39.4315 51.2385 39.4315H45.6488C44.2309 39.4206 43.6967 39.099 43.3198 37.8138Z" fill="white"/>
<path d="M6.05548 16.3209L28.4141 4.99666H30.0444L32.8392 6.84551V15.8587L6.05548 16.3209Z" fill="white"/>
</svg>
