<svg width="56" height="55" viewBox="0 0 56 55" fill="none" xmlns="http://www.w3.org/2000/svg">
<path fill-rule="evenodd" clip-rule="evenodd" d="M19.2326 45.8333C20.1517 46.5064 20.7348 46.7905 21.8517 47.1429L22.5064 52.381C22.7645 53.9743 22.9918 54.8067 25.1255 55H32.3279C33.5492 54.8867 33.9509 54.2544 34.2921 52.381L34.9469 47.1429C36.1942 46.8538 36.7528 46.5487 37.566 45.8333L43.4588 49.7619C44.0789 50.14 44.4967 50.0221 45.4231 49.1071L50.0064 44.5238C51.4127 43.3513 51.734 42.6509 50.6612 41.25L46.7326 36.6667C47.4599 35.6282 47.8127 35.1236 48.0421 34.0476L53.935 32.7381C55.3848 32.3938 55.7875 31.9468 55.8993 30.7738V24.2262C55.6466 22.5558 55.0947 21.9643 53.2802 21.6071L48.0421 20.9524C47.5875 19.6565 47.2912 19.1315 46.7326 18.3333L50.6612 13.0952C51.3084 12.1511 50.9496 11.4073 49.3517 9.82143L45.4231 5.89286C44.469 4.99684 43.7807 4.91867 42.1493 5.89286L37.566 9.16667C36.5744 8.53225 36.0298 8.2062 34.9469 7.85714L33.6374 1.96429C33.3464 0.620653 32.8332 0.143063 31.0183 0H25.1255C23.4105 0.19216 22.7841 0.701742 22.5064 2.61905L21.8517 7.85714C20.7065 8.10255 20.2135 8.43337 19.2326 9.16667L13.9945 5.2381C13.1611 4.78738 12.6434 4.72446 11.3755 5.89286L6.13739 11.131C5.38201 11.8979 5.4838 12.6086 6.13739 13.75L9.4112 18.3333C8.72126 19.1273 8.39171 19.6459 8.10167 20.9524L2.86358 21.6071C1.38113 21.8717 0.915244 22.4072 0.899292 24.2262V30.7738C0.950996 32.5809 1.56734 33.1135 3.51834 33.3929L8.75643 34.0476C8.79235 35.007 8.944 35.5889 9.4112 36.6667L6.13739 41.9048C5.55879 42.9963 5.8103 43.5593 6.79215 44.5238L11.3755 49.1071C12.4485 50.1525 13.1278 50.3487 14.6493 49.1071L19.2326 45.8333ZM13.3398 18.3333C12.2137 20.1436 11.7134 21.2436 11.3755 23.5714L4.1731 24.881V30.119L11.3755 31.4286C11.867 33.578 12.3341 34.7102 13.3398 36.6667L9.4112 42.5595L13.3398 46.4881L19.2326 41.9048C21.1178 43.1309 22.2531 43.6983 24.4707 44.5238L25.7802 51.7262H31.0183L32.3279 44.5238C34.7209 43.909 35.8298 43.2912 37.566 41.9048L43.4588 46.4881L47.3874 42.5595L42.8041 36.6667C44.3538 34.7986 44.906 33.6448 45.4231 31.4286L52.6255 30.119V24.881L45.4231 23.5714C44.7637 21.2131 44.1294 20.1196 42.8041 18.3333L47.3874 12.4405L43.4588 8.5119L37.566 13.0952C35.8092 11.6216 34.6855 11.0204 32.3279 10.4762L31.0183 3.27381H25.7802L24.4707 10.4762C22.3663 11.1725 21.1995 11.6305 19.2326 13.0952L13.3398 8.5119L9.4112 12.4405L13.3398 18.3333Z" fill="#FFD700"/>
<circle cx="28.3993" cy="27.5" r="10.4762" fill="#FFD700"/>
<circle cx="28.3993" cy="27.5" r="6.54762" fill="white"/>
</svg>
