<svg width="66" height="60" viewBox="0 0 66 60" fill="none" xmlns="http://www.w3.org/2000/svg">
<path d="M49.5476 9.98492L57.1463 21.3573C57.3014 21.5893 57.3524 21.8756 57.287 22.147L54.3134 34.4942C54.2545 34.7386 54.1058 34.9518 53.8968 35.0915L20.0825 57.6851C19.6233 57.992 19.0023 57.8684 18.6955 57.4092L1.53835 31.7314C1.23152 31.2722 1.35505 30.6512 1.81426 30.3443L36.245 7.33877C36.4655 7.19143 36.7355 7.13772 36.9957 7.18946L48.9113 9.5597C49.1714 9.61144 49.4003 9.7644 49.5476 9.98492Z" fill="#FFD700"/>
<circle cx="47.8435" cy="19.8225" r="3.82353" transform="rotate(146.25 47.8435 19.8225)" fill="#D9BF6B"/>
<circle cx="47.8435" cy="19.8224" r="2.29412" transform="rotate(146.25 47.8435 19.8224)" fill="white"/>
<path d="M49.857 18.5481C44.2129 24.4581 45.8781 26.1255 48.0654 29.3666C50.936 33.7596 55.9184 35.5601 59.5794 33.0988C63.2404 30.6376 63.7918 27.5169 60.5375 21.0331C59.3521 19.5174 57.6236 19.372 56.3764 20.2054" stroke="#D9BF6B"/>
</svg>
