<svg width="48" height="63" viewBox="0 0 48 63" fill="none" xmlns="http://www.w3.org/2000/svg">
<path d="M0 61.5V4.5C0.343703 0.824463 1.48016 0.0422884 4.5 0H21C25.5 -1.07504e-09 25.9783 2.05351 26 4.5V25.5H32C35.3228 25.5224 36.2755 26.5535 36.5 30V55.5C36.5021 58.2819 37.5 59.5 40.5 59.5C43.5 59.5 43.6424 57.5518 43.5 55.5L40.5 38V22H38C35.5 22 34.9466 20.3825 35 19V10L30.5 5.5L32.5 3.5L41 12C43.2811 14.3071 43.565 15.9267 43.5 19V38L47 55.5C47.2869 59.5517 46.5 62.5 40.5 62.5C34.5 62.5 33.2684 60.0868 33.5 55.5V30C33.4572 28.9362 33.1371 28.6061 32 28.5H26V61.5H0Z" fill="#FFD700"/>
<path d="M37.5 18.5001V14.0001C37.5 13.5 40.5 14.9999 40.5 15.5001V20.0001C40.5 20.5 37.5 20.5 37.5 18.5001Z" fill="white"/>
<rect x="3" y="4" width="20" height="15" rx="1" fill="white"/>
</svg>
