<svg width="276" height="87" viewBox="0 0 276 87" fill="none" xmlns="http://www.w3.org/2000/svg">
<path d="M14.7358 14.0242C14.7358 11.9677 14.7358 11.9677 16.7708 11.9677H43.2245C44.5811 11.9677 44.5811 11.9677 44.5811 14.0242V33.9032C44.5811 36.6452 44.5811 36.6452 43.2245 36.6452H16.7708C14.7358 36.6452 14.7358 36.6452 14.7358 34.5887V14.0242Z" fill="#FFD700"/>
<path fill-rule="evenodd" clip-rule="evenodd" d="M5.91792 75.7177V8.54032C5.91792 1 5.91792 1 13.3792 1H47.9726C54.0774 1 54.0774 1 54.0774 8.54032V12.6532L69 26.3629V68.8629C69 71.6049 66.2868 75.7177 62.217 75.7177H54.0774L57.2103 81.2016C57.9774 82.5726 58.9371 86.0002 57.2103 86H2.52641C0.491066 86 0.491274 81.8872 2.52641 79.8306C4.56155 77.7741 5.91792 75.7177 5.91792 75.7177ZM54.0774 66.121V23.621L62.217 31.1613V66.121C62.217 68.4956 62.217 68.4956 58.1472 68.4956C54.0774 68.4956 54.0774 68.4956 54.0774 66.121ZM16.7708 11.9677C14.7358 11.9677 14.7358 11.9677 14.7358 14.0242V34.5887C14.7358 36.6452 14.7358 36.6452 16.7708 36.6452H43.2245C44.5811 36.6452 44.5811 36.6452 44.5811 33.9032V14.0242C44.5811 11.9677 44.5811 11.9677 43.2245 11.9677H16.7708Z" fill="black"/>
<path d="M54.0774 23.621V66.121C54.0774 68.4956 54.0774 68.4956 58.1472 68.4956C62.217 68.4956 62.217 68.4956 62.217 66.121V31.1613L54.0774 23.621Z" fill="#FFD700"/>
<path d="M5.91792 75.7177C5.91792 75.7177 5.91792 16.0806 5.91792 8.54032M5.91792 75.7177C5.91792 75.7177 4.56155 77.7741 2.52641 79.8306C0.491274 81.8872 0.491066 86 2.52641 86M5.91792 75.7177V8.54032M5.91792 8.54032C5.91792 1 5.91792 1 13.3792 1M13.3792 1C20.8406 1 41.8679 1 47.9726 1M13.3792 1H47.9726M47.9726 1C54.0774 1 54.0774 1 54.0774 8.54032M54.0774 8.54032C54.0774 16.0806 54.0774 12.6532 54.0774 12.6532M54.0774 8.54032V12.6532M54.0774 12.6532L69 26.3629M69 26.3629C69 26.3629 69 66.1209 69 68.8629M69 26.3629V68.8629M69 68.8629C69 71.6049 66.2868 75.7177 62.217 75.7177M62.217 75.7177C58.1472 75.7177 54.0774 75.7177 54.0774 75.7177M62.217 75.7177H54.0774M54.0774 75.7177L57.2103 81.2016C57.9774 82.5726 58.9371 86.0002 57.2103 86M57.2103 86C55.4835 85.9998 4.56176 86 2.52641 86M57.2103 86H2.52641M54.0774 23.621C54.0774 23.621 54.0774 63.7464 54.0774 66.121M54.0774 23.621L62.217 31.1613M54.0774 23.621V66.121M54.0774 66.121C54.0774 68.4956 54.0774 68.4956 58.1472 68.4956C62.217 68.4956 62.217 68.4956 62.217 66.121M62.217 66.121C62.217 63.7464 62.217 31.1613 62.217 31.1613M62.217 66.121V31.1613M14.7358 14.0242C14.7358 11.9677 14.7358 11.9677 16.7708 11.9677M14.7358 14.0242C14.7358 16.0806 14.7358 32.5323 14.7358 34.5887M14.7358 14.0242V34.5887M16.7708 11.9677C18.8057 11.9677 41.8679 11.9677 43.2245 11.9677M16.7708 11.9677H43.2245M43.2245 11.9677C44.5811 11.9677 44.5811 11.9677 44.5811 14.0242M44.5811 14.0242C44.5811 16.0806 44.5811 31.1613 44.5811 33.9032M44.5811 14.0242V33.9032M44.5811 33.9032C44.5811 36.6452 44.5811 36.6452 43.2245 36.6452M43.2245 36.6452C41.8679 36.6452 18.8057 36.6452 16.7708 36.6452M43.2245 36.6452H16.7708M16.7708 36.6452C14.7358 36.6452 14.7358 36.6452 14.7358 34.5887" stroke="black"/>
<path d="M109.656 36.1562L97.9062 73H87.0312L103.875 27.5H110.75L109.656 36.1562ZM119.406 73L107.625 36.1562L106.406 27.5H113.375L130.281 73H119.406ZM118.906 56.0625V63.9375H95.1875V56.0625H118.906ZM143.75 57.25L161.094 27.5H171.25V73H161.094V43.2812L143.75 73H133.594V27.5H143.75V57.25ZM197.25 49.625V57.25H179.062V49.625H197.25ZM211.344 65.6562H211.969C214.26 65.6562 216.271 65.3958 218 64.875C219.729 64.3333 221.177 63.5312 222.344 62.4688C223.531 61.3854 224.427 60.0417 225.031 58.4375C225.635 56.8125 225.938 54.8958 225.938 52.6875V43.6875C225.938 42.125 225.792 40.7708 225.5 39.625C225.229 38.4583 224.823 37.4896 224.281 36.7188C223.74 35.9479 223.104 35.375 222.375 35C221.646 34.625 220.844 34.4375 219.969 34.4375C219.052 34.4375 218.24 34.6771 217.531 35.1562C216.844 35.6354 216.25 36.2812 215.75 37.0938C215.25 37.9062 214.875 38.8229 214.625 39.8438C214.375 40.8646 214.25 41.9062 214.25 42.9688C214.25 44.1146 214.375 45.1875 214.625 46.1875C214.896 47.1875 215.281 48.0625 215.781 48.8125C216.281 49.5625 216.917 50.1562 217.688 50.5938C218.458 51.0104 219.354 51.2188 220.375 51.2188C221.396 51.2188 222.281 51.0312 223.031 50.6562C223.802 50.2812 224.448 49.7812 224.969 49.1562C225.51 48.5312 225.917 47.8542 226.188 47.125C226.458 46.375 226.594 45.6354 226.594 44.9062L229.594 46.9062C229.594 48.3021 229.281 49.6771 228.656 51.0312C228.052 52.3854 227.208 53.6146 226.125 54.7188C225.042 55.8229 223.781 56.7083 222.344 57.375C220.927 58.0208 219.417 58.3438 217.812 58.3438C215.729 58.3438 213.854 57.9688 212.188 57.2188C210.542 56.4688 209.146 55.4167 208 54.0625C206.854 52.6875 205.979 51.0625 205.375 49.1875C204.771 47.3125 204.469 45.25 204.469 43C204.469 40.7917 204.844 38.7188 205.594 36.7812C206.344 34.8229 207.406 33.1042 208.781 31.625C210.156 30.1458 211.792 28.9792 213.688 28.125C215.604 27.2708 217.719 26.8438 220.031 26.8438C222.302 26.8438 224.385 27.2812 226.281 28.1562C228.177 29.0104 229.833 30.2396 231.25 31.8438C232.667 33.4479 233.76 35.3958 234.531 37.6875C235.323 39.9792 235.719 42.5625 235.719 45.4375V48.8125C235.719 51.8958 235.365 54.7292 234.656 57.3125C233.948 59.8958 232.906 62.1875 231.531 64.1875C230.177 66.1875 228.531 67.8854 226.594 69.2812C224.677 70.6771 222.5 71.7396 220.062 72.4688C217.646 73.1771 215 73.5312 212.125 73.5312H211.344V65.6562ZM272.906 60.5C272.906 63.375 272.229 65.7917 270.875 67.75C269.521 69.7083 267.667 71.1771 265.312 72.1562C262.979 73.1354 260.312 73.625 257.312 73.625C254.333 73.625 251.656 73.1354 249.281 72.1562C246.927 71.1771 245.062 69.7083 243.688 67.75C242.312 65.7917 241.625 63.375 241.625 60.5C241.625 58.5417 242.01 56.7812 242.781 55.2188C243.573 53.6562 244.667 52.3229 246.062 51.2188C247.479 50.1146 249.135 49.2708 251.031 48.6875C252.948 48.1042 255.021 47.8125 257.25 47.8125C260.25 47.8125 262.927 48.3333 265.281 49.375C267.656 50.3958 269.521 51.8542 270.875 53.75C272.229 55.6458 272.906 57.8958 272.906 60.5ZM263.094 59.7812C263.094 58.4479 262.844 57.3229 262.344 56.4062C261.865 55.4688 261.188 54.75 260.312 54.25C259.438 53.7292 258.417 53.4688 257.25 53.4688C256.083 53.4688 255.062 53.7292 254.188 54.25C253.312 54.75 252.625 55.4688 252.125 56.4062C251.646 57.3229 251.406 58.4479 251.406 59.7812C251.406 61.0729 251.656 62.1979 252.156 63.1562C252.656 64.0938 253.344 64.8125 254.219 65.3125C255.094 65.7917 256.125 66.0312 257.312 66.0312C258.5 66.0312 259.521 65.7917 260.375 65.3125C261.229 64.8125 261.896 64.0938 262.375 63.1562C262.854 62.1979 263.094 61.0729 263.094 59.7812ZM271.938 39.5938C271.938 41.9479 271.312 44.0208 270.062 45.8125C268.833 47.5833 267.115 48.9688 264.906 49.9688C262.698 50.9479 260.167 51.4375 257.312 51.4375C254.458 51.4375 251.917 50.9479 249.688 49.9688C247.479 48.9688 245.74 47.5833 244.469 45.8125C243.219 44.0208 242.594 41.9479 242.594 39.5938C242.594 36.8438 243.219 34.5208 244.469 32.625C245.74 30.7292 247.479 29.2917 249.688 28.3125C251.896 27.3333 254.417 26.8438 257.25 26.8438C260.125 26.8438 262.667 27.3333 264.875 28.3125C267.083 29.2917 268.812 30.7292 270.062 32.625C271.312 34.5208 271.938 36.8438 271.938 39.5938ZM262.188 40.0938C262.188 38.9479 261.99 37.9583 261.594 37.125C261.219 36.2708 260.667 35.6146 259.938 35.1562C259.208 34.6771 258.312 34.4375 257.25 34.4375C256.229 34.4375 255.354 34.6667 254.625 35.125C253.896 35.5625 253.333 36.2083 252.938 37.0625C252.562 37.8958 252.375 38.9062 252.375 40.0938C252.375 41.2604 252.562 42.2812 252.938 43.1562C253.333 44.0104 253.896 44.6875 254.625 45.1875C255.375 45.6667 256.271 45.9062 257.312 45.9062C258.375 45.9062 259.26 45.6667 259.969 45.1875C260.698 44.6875 261.25 44.0104 261.625 43.1562C262 42.2812 262.188 41.2604 262.188 40.0938Z" fill="black"/>
</svg>
