<svg width="170" height="75" viewBox="0 0 170 75" fill="none" xmlns="http://www.w3.org/2000/svg">
<rect y="47" width="170" height="28" rx="14" fill="#E4DDD5"/>
<rect y="47" width="120" height="28" rx="14" fill="#5CBA2F"/>
<path d="M36.4551 28.0986H36.7871C38.0046 28.0986 39.0726 27.9603 39.9912 27.6836C40.9098 27.3958 41.679 26.9697 42.2988 26.4053C42.9297 25.8298 43.4056 25.1159 43.7266 24.2637C44.0475 23.4004 44.208 22.3822 44.208 21.209V16.4277C44.208 15.5977 44.1305 14.8783 43.9756 14.2695C43.8317 13.6497 43.6159 13.1351 43.3281 12.7256C43.0404 12.3161 42.7028 12.0117 42.3154 11.8125C41.9281 11.6133 41.502 11.5137 41.0371 11.5137C40.5501 11.5137 40.1185 11.641 39.7422 11.8955C39.377 12.1501 39.0615 12.4932 38.7959 12.9248C38.5303 13.3564 38.3311 13.8434 38.1982 14.3857C38.0654 14.9281 37.999 15.4814 37.999 16.0459C37.999 16.6546 38.0654 17.2246 38.1982 17.7559C38.3421 18.2871 38.5469 18.752 38.8125 19.1504C39.0781 19.5488 39.4157 19.8643 39.8252 20.0967C40.2347 20.318 40.7106 20.4287 41.2529 20.4287C41.7952 20.4287 42.2656 20.3291 42.6641 20.1299C43.0736 19.9307 43.4167 19.665 43.6934 19.333C43.9811 19.001 44.1969 18.6413 44.3408 18.2539C44.4847 17.8555 44.5566 17.4626 44.5566 17.0752L46.1504 18.1377C46.1504 18.8792 45.9844 19.6097 45.6523 20.3291C45.3314 21.0485 44.8831 21.7015 44.3076 22.2881C43.7321 22.8747 43.0625 23.3451 42.2988 23.6992C41.5462 24.0423 40.7438 24.2139 39.8916 24.2139C38.7848 24.2139 37.7887 24.0146 36.9033 23.6162C36.029 23.2178 35.2874 22.6589 34.6787 21.9395C34.07 21.209 33.6051 20.3457 33.2842 19.3496C32.9632 18.3535 32.8027 17.2578 32.8027 16.0625C32.8027 14.8893 33.002 13.7881 33.4004 12.7588C33.7988 11.7184 34.3633 10.8053 35.0938 10.0195C35.8242 9.23372 36.693 8.61393 37.7002 8.16016C38.7184 7.70638 39.8418 7.47949 41.0703 7.47949C42.2767 7.47949 43.3835 7.71191 44.3906 8.17676C45.3978 8.63053 46.2777 9.28353 47.0303 10.1357C47.7829 10.988 48.3639 12.0228 48.7734 13.2402C49.194 14.4577 49.4043 15.8301 49.4043 17.3574V19.1504C49.4043 20.7884 49.2161 22.2936 48.8398 23.666C48.4635 25.0384 47.9102 26.2559 47.1797 27.3184C46.4603 28.3809 45.5859 29.2829 44.5566 30.0244C43.5384 30.766 42.3818 31.3304 41.0869 31.7178C39.8031 32.0941 38.3975 32.2822 36.8701 32.2822H36.4551V28.0986ZM78.1582 22.7695V26.7871H60.7598L60.4775 23.6328L70.3721 7.82812H74.4727L70.0234 15.1992L65.5244 22.7695H78.1582ZM75.5684 7.82812V32H70.3887V7.82812H75.5684ZM97.416 27.9658V32H80.7148V28.5801L88.5176 20.3125C89.248 19.4714 89.8291 18.7298 90.2607 18.0879C90.7035 17.446 91.0244 16.8649 91.2236 16.3447C91.4229 15.8135 91.5225 15.3265 91.5225 14.8838C91.5225 14.1644 91.4062 13.5557 91.1738 13.0576C90.9525 12.5596 90.626 12.1777 90.1943 11.9121C89.7627 11.6465 89.237 11.5137 88.6172 11.5137C87.9531 11.5137 87.3831 11.6852 86.9072 12.0283C86.4313 12.3714 86.0661 12.8473 85.8115 13.4561C85.557 14.0537 85.4297 14.7344 85.4297 15.498H80.2168C80.2168 14.026 80.571 12.6868 81.2793 11.4805C81.9876 10.263 82.9782 9.2946 84.251 8.5752C85.5238 7.84473 87.0124 7.47949 88.7168 7.47949C90.4655 7.47949 91.932 7.75618 93.1162 8.30957C94.3005 8.86296 95.1969 9.6543 95.8057 10.6836C96.4144 11.7129 96.7188 12.9525 96.7188 14.4023C96.7188 15.2214 96.5859 16.0127 96.3203 16.7764C96.0658 17.54 95.695 18.2982 95.208 19.0508C94.721 19.8034 94.1344 20.5726 93.4482 21.3584C92.762 22.1331 91.9873 22.9521 91.124 23.8154L87.4717 27.9658H97.416ZM103.791 28.0986H104.123C105.34 28.0986 106.409 27.9603 107.327 27.6836C108.246 27.3958 109.015 26.9697 109.635 26.4053C110.266 25.8298 110.742 25.1159 111.062 24.2637C111.383 23.4004 111.544 22.3822 111.544 21.209V16.4277C111.544 15.5977 111.466 14.8783 111.312 14.2695C111.168 13.6497 110.952 13.1351 110.664 12.7256C110.376 12.3161 110.039 12.0117 109.651 11.8125C109.264 11.6133 108.838 11.5137 108.373 11.5137C107.886 11.5137 107.454 11.641 107.078 11.8955C106.713 12.1501 106.397 12.4932 106.132 12.9248C105.866 13.3564 105.667 13.8434 105.534 14.3857C105.401 14.9281 105.335 15.4814 105.335 16.0459C105.335 16.6546 105.401 17.2246 105.534 17.7559C105.678 18.2871 105.883 18.752 106.148 19.1504C106.414 19.5488 106.752 19.8643 107.161 20.0967C107.571 20.318 108.047 20.4287 108.589 20.4287C109.131 20.4287 109.602 20.3291 110 20.1299C110.41 19.9307 110.753 19.665 111.029 19.333C111.317 19.001 111.533 18.6413 111.677 18.2539C111.821 17.8555 111.893 17.4626 111.893 17.0752L113.486 18.1377C113.486 18.8792 113.32 19.6097 112.988 20.3291C112.667 21.0485 112.219 21.7015 111.644 22.2881C111.068 22.8747 110.398 23.3451 109.635 23.6992C108.882 24.0423 108.08 24.2139 107.228 24.2139C106.121 24.2139 105.125 24.0146 104.239 23.6162C103.365 23.2178 102.623 22.6589 102.015 21.9395C101.406 21.209 100.941 20.3457 100.62 19.3496C100.299 18.3535 100.139 17.2578 100.139 16.0625C100.139 14.8893 100.338 13.7881 100.736 12.7588C101.135 11.7184 101.699 10.8053 102.43 10.0195C103.16 9.23372 104.029 8.61393 105.036 8.16016C106.054 7.70638 107.178 7.47949 108.406 7.47949C109.613 7.47949 110.719 7.71191 111.727 8.17676C112.734 8.63053 113.614 9.28353 114.366 10.1357C115.119 10.988 115.7 12.0228 116.109 13.2402C116.53 14.4577 116.74 15.8301 116.74 17.3574V19.1504C116.74 20.7884 116.552 22.2936 116.176 23.666C115.799 25.0384 115.246 26.2559 114.516 27.3184C113.796 28.3809 112.922 29.2829 111.893 30.0244C110.874 30.766 109.718 31.3304 108.423 31.7178C107.139 32.0941 105.733 32.2822 104.206 32.2822H103.791V28.0986ZM132.246 14.0371V18.0713H123.381V14.0371H132.246ZM135.915 14.0371V32H130.735V14.0371H135.915ZM122.069 14.0371H127.149L126.651 23.1846C126.585 24.4795 126.441 25.6139 126.22 26.5879C126.009 27.5618 125.722 28.3919 125.356 29.0781C125.002 29.7643 124.576 30.3232 124.078 30.7549C123.58 31.1865 123.01 31.502 122.368 31.7012C121.737 31.9004 121.046 32 120.293 32H118.716L118.633 27.9658L119.247 27.8994C119.579 27.8662 119.867 27.7666 120.11 27.6006C120.365 27.4346 120.581 27.1966 120.758 26.8867C120.946 26.5768 121.106 26.1784 121.239 25.6914C121.372 25.2044 121.477 24.6344 121.555 23.9814C121.643 23.3174 121.704 22.5537 121.737 21.6904L122.069 14.0371Z" fill="#5CBA2F"/>
</svg>
