<svg width="170" height="75" viewBox="0 0 170 75" fill="none" xmlns="http://www.w3.org/2000/svg">
<rect y="47" width="170" height="28" rx="14" fill="#E4DDD5"/>
<rect y="47" width="130.984" height="28" rx="14" fill="#5CBA2F"/>
<path d="M35.21 7.81152V32H30.0137V13.7217L24.4023 15.4316V11.4141L34.6953 7.81152H35.21ZM54.833 7.81152V32H49.6367V13.7217L44.0254 15.4316V11.4141L54.3184 7.81152H54.833ZM75.9004 17.7061H78.54C79.2926 17.7061 79.9124 17.5732 80.3994 17.3076C80.8975 17.042 81.2627 16.6657 81.4951 16.1787C81.7386 15.6917 81.8604 15.1217 81.8604 14.4688C81.8604 13.9043 81.7497 13.4007 81.5283 12.958C81.307 12.5153 80.9694 12.1667 80.5156 11.9121C80.0729 11.6465 79.4974 11.5137 78.7891 11.5137C78.2799 11.5137 77.793 11.6188 77.3281 11.8291C76.8743 12.0283 76.5036 12.3216 76.2158 12.709C75.9281 13.0853 75.7842 13.5391 75.7842 14.0703H70.5879C70.5879 12.7201 70.9531 11.5524 71.6836 10.5674C72.4251 9.58236 73.4046 8.82422 74.6221 8.29297C75.8506 7.75065 77.1898 7.47949 78.6396 7.47949C80.3109 7.47949 81.7773 7.74512 83.0391 8.27637C84.3118 8.79655 85.2969 9.57129 85.9941 10.6006C86.7025 11.6188 87.0566 12.8805 87.0566 14.3857C87.0566 15.1715 86.8685 15.9297 86.4922 16.6602C86.127 17.3796 85.6012 18.0215 84.915 18.5859C84.2399 19.1393 83.432 19.582 82.4912 19.9141C81.5615 20.235 80.5267 20.3955 79.3867 20.3955H75.9004V17.7061ZM75.9004 21.6074V18.9678H79.3867C80.6484 18.9678 81.7773 19.1117 82.7734 19.3994C83.7695 19.6872 84.6162 20.1022 85.3135 20.6445C86.0107 21.1868 86.542 21.8454 86.9072 22.6201C87.2725 23.3949 87.4551 24.2581 87.4551 25.21C87.4551 26.3389 87.2337 27.346 86.791 28.2314C86.3483 29.1169 85.7285 29.8639 84.9316 30.4727C84.1348 31.0814 83.1995 31.5462 82.126 31.8672C81.0524 32.1771 79.8903 32.332 78.6396 32.332C77.6325 32.332 76.6309 32.1937 75.6348 31.917C74.6387 31.6403 73.7367 31.2197 72.9287 30.6553C72.1208 30.0798 71.4733 29.3548 70.9863 28.4805C70.4993 27.5951 70.2559 26.5436 70.2559 25.3262H75.4521C75.4521 25.8906 75.596 26.3997 75.8838 26.8535C76.1826 27.2962 76.5866 27.6504 77.0957 27.916C77.6159 28.1706 78.1803 28.2979 78.7891 28.2979C79.5195 28.2979 80.1393 28.165 80.6484 27.8994C81.1686 27.6227 81.5615 27.2464 81.8271 26.7705C82.1038 26.2946 82.2422 25.7467 82.2422 25.127C82.2422 24.2858 82.0928 23.6107 81.7939 23.1016C81.5062 22.5814 81.0856 22.2051 80.5322 21.9727C79.9788 21.7292 79.3148 21.6074 78.54 21.6074H75.9004ZM107.045 17.7559V22.0557C107.045 23.8265 106.846 25.3594 106.447 26.6543C106.06 27.9492 105.495 29.0173 104.754 29.8584C104.023 30.6995 103.149 31.3249 102.131 31.7344C101.124 32.1328 100.006 32.332 98.7773 32.332C97.7923 32.332 96.8737 32.2048 96.0215 31.9502C95.1693 31.6956 94.4001 31.3027 93.7139 30.7715C93.0387 30.2292 92.4577 29.554 91.9707 28.7461C91.4837 27.9382 91.1074 26.9753 90.8418 25.8574C90.5872 24.7396 90.46 23.4723 90.46 22.0557V17.7559C90.46 15.9629 90.6536 14.4245 91.041 13.1406C91.4395 11.8568 92.0094 10.7943 92.751 9.95312C93.4925 9.11198 94.3669 8.49219 95.374 8.09375C96.3923 7.69531 97.5156 7.49609 98.7441 7.49609C99.7292 7.49609 100.642 7.62337 101.483 7.87793C102.336 8.13249 103.105 8.52539 103.791 9.05664C104.477 9.58789 105.058 10.2575 105.534 11.0654C106.021 11.8734 106.392 12.8363 106.646 13.9541C106.912 15.0609 107.045 16.3281 107.045 17.7559ZM101.865 22.7031V17.0752C101.865 16.2451 101.815 15.5257 101.716 14.917C101.627 14.2972 101.494 13.7715 101.317 13.3398C101.151 12.9082 100.941 12.5596 100.687 12.2939C100.432 12.0283 100.139 11.8346 99.8066 11.7129C99.4857 11.5801 99.1315 11.5137 98.7441 11.5137C98.2572 11.5137 97.82 11.6133 97.4326 11.8125C97.0452 12.0117 96.7188 12.3271 96.4531 12.7588C96.1875 13.1794 95.9827 13.7493 95.8389 14.4688C95.7061 15.1771 95.6396 16.0459 95.6396 17.0752V22.7031C95.6396 23.5332 95.6839 24.2581 95.7725 24.8779C95.8721 25.4977 96.0049 26.029 96.1709 26.4717C96.348 26.9033 96.5638 27.2575 96.8184 27.5342C97.0729 27.7998 97.3662 27.9935 97.6982 28.1152C98.0303 28.237 98.39 28.2979 98.7773 28.2979C99.2643 28.2979 99.696 28.2038 100.072 28.0156C100.449 27.8164 100.77 27.501 101.035 27.0693C101.312 26.6266 101.517 26.0456 101.649 25.3262C101.793 24.6068 101.865 23.7324 101.865 22.7031ZM126.668 17.7559V22.0557C126.668 23.8265 126.469 25.3594 126.07 26.6543C125.683 27.9492 125.118 29.0173 124.377 29.8584C123.646 30.6995 122.772 31.3249 121.754 31.7344C120.747 32.1328 119.629 32.332 118.4 32.332C117.415 32.332 116.497 32.2048 115.645 31.9502C114.792 31.6956 114.023 31.3027 113.337 30.7715C112.662 30.2292 112.081 29.554 111.594 28.7461C111.107 27.9382 110.73 26.9753 110.465 25.8574C110.21 24.7396 110.083 23.4723 110.083 22.0557V17.7559C110.083 15.9629 110.277 14.4245 110.664 13.1406C111.062 11.8568 111.632 10.7943 112.374 9.95312C113.116 9.11198 113.99 8.49219 114.997 8.09375C116.015 7.69531 117.139 7.49609 118.367 7.49609C119.352 7.49609 120.265 7.62337 121.106 7.87793C121.959 8.13249 122.728 8.52539 123.414 9.05664C124.1 9.58789 124.681 10.2575 125.157 11.0654C125.644 11.8734 126.015 12.8363 126.27 13.9541C126.535 15.0609 126.668 16.3281 126.668 17.7559ZM121.488 22.7031V17.0752C121.488 16.2451 121.438 15.5257 121.339 14.917C121.25 14.2972 121.118 13.7715 120.94 13.3398C120.774 12.9082 120.564 12.5596 120.31 12.2939C120.055 12.0283 119.762 11.8346 119.43 11.7129C119.109 11.5801 118.755 11.5137 118.367 11.5137C117.88 11.5137 117.443 11.6133 117.056 11.8125C116.668 12.0117 116.342 12.3271 116.076 12.7588C115.811 13.1794 115.606 13.7493 115.462 14.4688C115.329 15.1771 115.263 16.0459 115.263 17.0752V22.7031C115.263 23.5332 115.307 24.2581 115.396 24.8779C115.495 25.4977 115.628 26.029 115.794 26.4717C115.971 26.9033 116.187 27.2575 116.441 27.5342C116.696 27.7998 116.989 27.9935 117.321 28.1152C117.653 28.237 118.013 28.2979 118.4 28.2979C118.887 28.2979 119.319 28.2038 119.695 28.0156C120.072 27.8164 120.393 27.501 120.658 27.0693C120.935 26.6266 121.14 26.0456 121.272 25.3262C121.416 24.6068 121.488 23.7324 121.488 22.7031ZM142.058 14.0371V18.0713H133.192V14.0371H142.058ZM145.727 14.0371V32H140.547V14.0371H145.727ZM131.881 14.0371H136.961L136.463 23.1846C136.396 24.4795 136.253 25.6139 136.031 26.5879C135.821 27.5618 135.533 28.3919 135.168 29.0781C134.814 29.7643 134.388 30.3232 133.89 30.7549C133.392 31.1865 132.822 31.502 132.18 31.7012C131.549 31.9004 130.857 32 130.104 32H128.527L128.444 27.9658L129.059 27.8994C129.391 27.8662 129.678 27.7666 129.922 27.6006C130.176 27.4346 130.392 27.1966 130.569 26.8867C130.757 26.5768 130.918 26.1784 131.051 25.6914C131.184 25.2044 131.289 24.6344 131.366 23.9814C131.455 23.3174 131.516 22.5537 131.549 21.6904L131.881 14.0371Z" fill="#5CBA2F"/>
</svg>
