<svg width="276" height="87" viewBox="0 0 276 87" fill="none" xmlns="http://www.w3.org/2000/svg">
<path d="M14.7358 14.0242C14.7358 11.9677 14.7358 11.9677 16.7708 11.9677H43.2245C44.5811 11.9677 44.5811 11.9677 44.5811 14.0242V33.9032C44.5811 36.6452 44.5811 36.6452 43.2245 36.6452H16.7708C14.7358 36.6452 14.7358 36.6452 14.7358 34.5887V14.0242Z" fill="#FFD700"/>
<path fill-rule="evenodd" clip-rule="evenodd" d="M5.91792 75.7177V8.54032C5.91792 1 5.91792 1 13.3792 1H47.9726C54.0774 1 54.0774 1 54.0774 8.54032V12.6532L69 26.3629V68.8629C69 71.6049 66.2868 75.7177 62.217 75.7177H54.0774L57.2103 81.2016C57.9774 82.5726 58.9371 86.0002 57.2103 86H2.52641C0.491066 86 0.491274 81.8872 2.52641 79.8306C4.56155 77.7741 5.91792 75.7177 5.91792 75.7177ZM54.0774 66.121V23.621L62.217 31.1613V66.121C62.217 68.4956 62.217 68.4956 58.1472 68.4956C54.0774 68.4956 54.0774 68.4956 54.0774 66.121ZM16.7708 11.9677C14.7358 11.9677 14.7358 11.9677 14.7358 14.0242V34.5887C14.7358 36.6452 14.7358 36.6452 16.7708 36.6452H43.2245C44.5811 36.6452 44.5811 36.6452 44.5811 33.9032V14.0242C44.5811 11.9677 44.5811 11.9677 43.2245 11.9677H16.7708Z" fill="black"/>
<path d="M54.0774 23.621V66.121C54.0774 68.4956 54.0774 68.4956 58.1472 68.4956C62.217 68.4956 62.217 68.4956 62.217 66.121V31.1613L54.0774 23.621Z" fill="#FFD700"/>
<path d="M5.91792 75.7177C5.91792 75.7177 5.91792 16.0806 5.91792 8.54032M5.91792 75.7177C5.91792 75.7177 4.56155 77.7741 2.52641 79.8306C0.491274 81.8872 0.491066 86 2.52641 86M5.91792 75.7177V8.54032M5.91792 8.54032C5.91792 1 5.91792 1 13.3792 1M13.3792 1C20.8406 1 41.8679 1 47.9726 1M13.3792 1H47.9726M47.9726 1C54.0774 1 54.0774 1 54.0774 8.54032M54.0774 8.54032C54.0774 16.0806 54.0774 12.6532 54.0774 12.6532M54.0774 8.54032V12.6532M54.0774 12.6532L69 26.3629M69 26.3629C69 26.3629 69 66.1209 69 68.8629M69 26.3629V68.8629M69 68.8629C69 71.6049 66.2868 75.7177 62.217 75.7177M62.217 75.7177C58.1472 75.7177 54.0774 75.7177 54.0774 75.7177M62.217 75.7177H54.0774M54.0774 75.7177L57.2103 81.2016C57.9774 82.5726 58.9371 86.0002 57.2103 86M57.2103 86C55.4835 85.9998 4.56176 86 2.52641 86M57.2103 86H2.52641M54.0774 23.621C54.0774 23.621 54.0774 63.7464 54.0774 66.121M54.0774 23.621L62.217 31.1613M54.0774 23.621V66.121M54.0774 66.121C54.0774 68.4956 54.0774 68.4956 58.1472 68.4956C62.217 68.4956 62.217 68.4956 62.217 66.121M62.217 66.121C62.217 63.7464 62.217 31.1613 62.217 31.1613M62.217 66.121V31.1613M14.7358 14.0242C14.7358 11.9677 14.7358 11.9677 16.7708 11.9677M14.7358 14.0242C14.7358 16.0806 14.7358 32.5323 14.7358 34.5887M14.7358 14.0242V34.5887M16.7708 11.9677C18.8057 11.9677 41.8679 11.9677 43.2245 11.9677M16.7708 11.9677H43.2245M43.2245 11.9677C44.5811 11.9677 44.5811 11.9677 44.5811 14.0242M44.5811 14.0242C44.5811 16.0806 44.5811 31.1613 44.5811 33.9032M44.5811 14.0242V33.9032M44.5811 33.9032C44.5811 36.6452 44.5811 36.6452 43.2245 36.6452M43.2245 36.6452C41.8679 36.6452 18.8057 36.6452 16.7708 36.6452M43.2245 36.6452H16.7708M16.7708 36.6452C14.7358 36.6452 14.7358 36.6452 14.7358 34.5887" stroke="black"/>
<path d="M109.656 36.1562L97.9062 73H87.0312L103.875 27.5H110.75L109.656 36.1562ZM119.406 73L107.625 36.1562L106.406 27.5H113.375L130.281 73H119.406ZM118.906 56.0625V63.9375H95.1875V56.0625H118.906ZM143.75 57.25L161.094 27.5H171.25V73H161.094V43.2812L143.75 73H133.594V27.5H143.75V57.25ZM197.25 49.625V57.25H179.062V49.625H197.25ZM211.344 65.6562H211.969C214.26 65.6562 216.271 65.3958 218 64.875C219.729 64.3333 221.177 63.5312 222.344 62.4688C223.531 61.3854 224.427 60.0417 225.031 58.4375C225.635 56.8125 225.938 54.8958 225.938 52.6875V43.6875C225.938 42.125 225.792 40.7708 225.5 39.625C225.229 38.4583 224.823 37.4896 224.281 36.7188C223.74 35.9479 223.104 35.375 222.375 35C221.646 34.625 220.844 34.4375 219.969 34.4375C219.052 34.4375 218.24 34.6771 217.531 35.1562C216.844 35.6354 216.25 36.2812 215.75 37.0938C215.25 37.9062 214.875 38.8229 214.625 39.8438C214.375 40.8646 214.25 41.9062 214.25 42.9688C214.25 44.1146 214.375 45.1875 214.625 46.1875C214.896 47.1875 215.281 48.0625 215.781 48.8125C216.281 49.5625 216.917 50.1562 217.688 50.5938C218.458 51.0104 219.354 51.2188 220.375 51.2188C221.396 51.2188 222.281 51.0312 223.031 50.6562C223.802 50.2812 224.448 49.7812 224.969 49.1562C225.51 48.5312 225.917 47.8542 226.188 47.125C226.458 46.375 226.594 45.6354 226.594 44.9062L229.594 46.9062C229.594 48.3021 229.281 49.6771 228.656 51.0312C228.052 52.3854 227.208 53.6146 226.125 54.7188C225.042 55.8229 223.781 56.7083 222.344 57.375C220.927 58.0208 219.417 58.3438 217.812 58.3438C215.729 58.3438 213.854 57.9688 212.188 57.2188C210.542 56.4688 209.146 55.4167 208 54.0625C206.854 52.6875 205.979 51.0625 205.375 49.1875C204.771 47.3125 204.469 45.25 204.469 43C204.469 40.7917 204.844 38.7188 205.594 36.7812C206.344 34.8229 207.406 33.1042 208.781 31.625C210.156 30.1458 211.792 28.9792 213.688 28.125C215.604 27.2708 217.719 26.8438 220.031 26.8438C222.302 26.8438 224.385 27.2812 226.281 28.1562C228.177 29.0104 229.833 30.2396 231.25 31.8438C232.667 33.4479 233.76 35.3958 234.531 37.6875C235.323 39.9792 235.719 42.5625 235.719 45.4375V48.8125C235.719 51.8958 235.365 54.7292 234.656 57.3125C233.948 59.8958 232.906 62.1875 231.531 64.1875C230.177 66.1875 228.531 67.8854 226.594 69.2812C224.677 70.6771 222.5 71.7396 220.062 72.4688C217.646 73.1771 215 73.5312 212.125 73.5312H211.344V65.6562ZM273.219 65.4062V73H241.781V66.5625L256.469 51C257.844 49.4167 258.938 48.0208 259.75 46.8125C260.583 45.6042 261.188 44.5104 261.562 43.5312C261.938 42.5312 262.125 41.6146 262.125 40.7812C262.125 39.4271 261.906 38.2812 261.469 37.3438C261.052 36.4062 260.438 35.6875 259.625 35.1875C258.812 34.6875 257.823 34.4375 256.656 34.4375C255.406 34.4375 254.333 34.7604 253.438 35.4062C252.542 36.0521 251.854 36.9479 251.375 38.0938C250.896 39.2188 250.656 40.5 250.656 41.9375H240.844C240.844 39.1667 241.51 36.6458 242.844 34.375C244.177 32.0833 246.042 30.2604 248.438 28.9062C250.833 27.5312 253.635 26.8438 256.844 26.8438C260.135 26.8438 262.896 27.3646 265.125 28.4062C267.354 29.4479 269.042 30.9375 270.188 32.875C271.333 34.8125 271.906 37.1458 271.906 39.875C271.906 41.4167 271.656 42.9062 271.156 44.3438C270.677 45.7812 269.979 47.2083 269.062 48.625C268.146 50.0417 267.042 51.4896 265.75 52.9688C264.458 54.4271 263 55.9688 261.375 57.5938L254.5 65.4062H273.219Z" fill="black"/>
</svg>
