<svg width="276" height="87" viewBox="0 0 276 87" fill="none" xmlns="http://www.w3.org/2000/svg">
<path d="M14.7358 14.0242C14.7358 11.9677 14.7358 11.9677 16.7708 11.9677H43.2245C44.5811 11.9677 44.5811 11.9677 44.5811 14.0242V33.9032C44.5811 36.6452 44.5811 36.6452 43.2245 36.6452H16.7708C14.7358 36.6452 14.7358 36.6452 14.7358 34.5887V14.0242Z" fill="#FFD700"/>
<path fill-rule="evenodd" clip-rule="evenodd" d="M5.91792 75.7177V8.54032C5.91792 1 5.91792 1 13.3792 1H47.9726C54.0774 1 54.0774 1 54.0774 8.54032V12.6532L69 26.3629V68.8629C69 71.6049 66.2868 75.7177 62.217 75.7177H54.0774L57.2103 81.2016C57.9774 82.5726 58.9371 86.0002 57.2103 86H2.52641C0.491066 86 0.491274 81.8872 2.52641 79.8306C4.56155 77.7741 5.91792 75.7177 5.91792 75.7177ZM54.0774 66.121V23.621L62.217 31.1613V66.121C62.217 68.4956 62.217 68.4956 58.1472 68.4956C54.0774 68.4956 54.0774 68.4956 54.0774 66.121ZM16.7708 11.9677C14.7358 11.9677 14.7358 11.9677 14.7358 14.0242V34.5887C14.7358 36.6452 14.7358 36.6452 16.7708 36.6452H43.2245C44.5811 36.6452 44.5811 36.6452 44.5811 33.9032V14.0242C44.5811 11.9677 44.5811 11.9677 43.2245 11.9677H16.7708Z" fill="black"/>
<path d="M54.0774 23.621V66.121C54.0774 68.4956 54.0774 68.4956 58.1472 68.4956C62.217 68.4956 62.217 68.4956 62.217 66.121V31.1613L54.0774 23.621Z" fill="#FFD700"/>
<path d="M5.91792 75.7177C5.91792 75.7177 5.91792 16.0806 5.91792 8.54032M5.91792 75.7177C5.91792 75.7177 4.56155 77.7741 2.52641 79.8306C0.491274 81.8872 0.491066 86 2.52641 86M5.91792 75.7177V8.54032M5.91792 8.54032C5.91792 1 5.91792 1 13.3792 1M13.3792 1C20.8406 1 41.8679 1 47.9726 1M13.3792 1H47.9726M47.9726 1C54.0774 1 54.0774 1 54.0774 8.54032M54.0774 8.54032C54.0774 16.0806 54.0774 12.6532 54.0774 12.6532M54.0774 8.54032V12.6532M54.0774 12.6532L69 26.3629M69 26.3629C69 26.3629 69 66.1209 69 68.8629M69 26.3629V68.8629M69 68.8629C69 71.6049 66.2868 75.7177 62.217 75.7177M62.217 75.7177C58.1472 75.7177 54.0774 75.7177 54.0774 75.7177M62.217 75.7177H54.0774M54.0774 75.7177L57.2103 81.2016C57.9774 82.5726 58.9371 86.0002 57.2103 86M57.2103 86C55.4835 85.9998 4.56176 86 2.52641 86M57.2103 86H2.52641M54.0774 23.621C54.0774 23.621 54.0774 63.7464 54.0774 66.121M54.0774 23.621L62.217 31.1613M54.0774 23.621V66.121M54.0774 66.121C54.0774 68.4956 54.0774 68.4956 58.1472 68.4956C62.217 68.4956 62.217 68.4956 62.217 66.121M62.217 66.121C62.217 63.7464 62.217 31.1613 62.217 31.1613M62.217 66.121V31.1613M14.7358 14.0242C14.7358 11.9677 14.7358 11.9677 16.7708 11.9677M14.7358 14.0242C14.7358 16.0806 14.7358 32.5323 14.7358 34.5887M14.7358 14.0242V34.5887M16.7708 11.9677C18.8057 11.9677 41.8679 11.9677 43.2245 11.9677M16.7708 11.9677H43.2245M43.2245 11.9677C44.5811 11.9677 44.5811 11.9677 44.5811 14.0242M44.5811 14.0242C44.5811 16.0806 44.5811 31.1613 44.5811 33.9032M44.5811 14.0242V33.9032M44.5811 33.9032C44.5811 36.6452 44.5811 36.6452 43.2245 36.6452M43.2245 36.6452C41.8679 36.6452 18.8057 36.6452 16.7708 36.6452M43.2245 36.6452H16.7708M16.7708 36.6452C14.7358 36.6452 14.7358 36.6452 14.7358 34.5887" stroke="black"/>
<path d="M109.656 36.1562L97.9062 73H87.0312L103.875 27.5H110.75L109.656 36.1562ZM119.406 73L107.625 36.1562L106.406 27.5H113.375L130.281 73H119.406ZM118.906 56.0625V63.9375H95.1875V56.0625H118.906ZM143.75 57.25L161.094 27.5H171.25V73H161.094V43.2812L143.75 73H133.594V27.5H143.75V57.25ZM197.25 49.625V57.25H179.062V49.625H197.25ZM211.344 65.6562H211.969C214.26 65.6562 216.271 65.3958 218 64.875C219.729 64.3333 221.177 63.5312 222.344 62.4688C223.531 61.3854 224.427 60.0417 225.031 58.4375C225.635 56.8125 225.938 54.8958 225.938 52.6875V43.6875C225.938 42.125 225.792 40.7708 225.5 39.625C225.229 38.4583 224.823 37.4896 224.281 36.7188C223.74 35.9479 223.104 35.375 222.375 35C221.646 34.625 220.844 34.4375 219.969 34.4375C219.052 34.4375 218.24 34.6771 217.531 35.1562C216.844 35.6354 216.25 36.2812 215.75 37.0938C215.25 37.9062 214.875 38.8229 214.625 39.8438C214.375 40.8646 214.25 41.9062 214.25 42.9688C214.25 44.1146 214.375 45.1875 214.625 46.1875C214.896 47.1875 215.281 48.0625 215.781 48.8125C216.281 49.5625 216.917 50.1562 217.688 50.5938C218.458 51.0104 219.354 51.2188 220.375 51.2188C221.396 51.2188 222.281 51.0312 223.031 50.6562C223.802 50.2812 224.448 49.7812 224.969 49.1562C225.51 48.5312 225.917 47.8542 226.188 47.125C226.458 46.375 226.594 45.6354 226.594 44.9062L229.594 46.9062C229.594 48.3021 229.281 49.6771 228.656 51.0312C228.052 52.3854 227.208 53.6146 226.125 54.7188C225.042 55.8229 223.781 56.7083 222.344 57.375C220.927 58.0208 219.417 58.3438 217.812 58.3438C215.729 58.3438 213.854 57.9688 212.188 57.2188C210.542 56.4688 209.146 55.4167 208 54.0625C206.854 52.6875 205.979 51.0625 205.375 49.1875C204.771 47.3125 204.469 45.25 204.469 43C204.469 40.7917 204.844 38.7188 205.594 36.7812C206.344 34.8229 207.406 33.1042 208.781 31.625C210.156 30.1458 211.792 28.9792 213.688 28.125C215.604 27.2708 217.719 26.8438 220.031 26.8438C222.302 26.8438 224.385 27.2812 226.281 28.1562C228.177 29.0104 229.833 30.2396 231.25 31.8438C232.667 33.4479 233.76 35.3958 234.531 37.6875C235.323 39.9792 235.719 42.5625 235.719 45.4375V48.8125C235.719 51.8958 235.365 54.7292 234.656 57.3125C233.948 59.8958 232.906 62.1875 231.531 64.1875C230.177 66.1875 228.531 67.8854 226.594 69.2812C224.677 70.6771 222.5 71.7396 220.062 72.4688C217.646 73.1771 215 73.5312 212.125 73.5312H211.344V65.6562ZM250.5 52.5L242.75 50.6562L245.406 27.5H271.469V35.2188H253.406L252.312 44.8125C252.875 44.4792 253.76 44.1146 254.969 43.7188C256.177 43.3021 257.531 43.0938 259.031 43.0938C261.26 43.0938 263.24 43.4375 264.969 44.125C266.698 44.8125 268.156 45.8125 269.344 47.125C270.552 48.4167 271.458 50.0104 272.062 51.9062C272.688 53.8021 273 55.9583 273 58.375C273 60.375 272.688 62.2917 272.062 64.125C271.438 65.9375 270.479 67.5625 269.188 69C267.917 70.4167 266.302 71.5417 264.344 72.375C262.385 73.2083 260.083 73.625 257.438 73.625C255.438 73.625 253.5 73.3229 251.625 72.7188C249.75 72.1146 248.062 71.2396 246.562 70.0938C245.083 68.9271 243.906 67.5104 243.031 65.8438C242.177 64.1771 241.74 62.3021 241.719 60.2188H251.469C251.573 61.4271 251.875 62.4688 252.375 63.3438C252.875 64.1979 253.552 64.8646 254.406 65.3438C255.26 65.8021 256.25 66.0312 257.375 66.0312C258.458 66.0312 259.375 65.8229 260.125 65.4062C260.875 64.9688 261.469 64.375 261.906 63.625C262.365 62.875 262.698 62 262.906 61C263.115 60 263.219 58.9271 263.219 57.7812C263.219 56.5938 263.083 55.5312 262.812 54.5938C262.542 53.6354 262.125 52.8229 261.562 52.1562C261 51.4688 260.281 50.9479 259.406 50.5938C258.552 50.2188 257.521 50.0312 256.312 50.0312C254.729 50.0312 253.49 50.2917 252.594 50.8125C251.698 51.3333 251 51.8958 250.5 52.5Z" fill="black"/>
</svg>
