<svg width="170" height="75" viewBox="0 0 170 75" fill="none" xmlns="http://www.w3.org/2000/svg">
<rect y="47" width="170" height="28" rx="14" fill="#E4DDD5"/>
<path d="M83.1885 17.7559V22.0557C83.1885 23.8265 82.9893 25.3594 82.5908 26.6543C82.2035 27.9492 81.639 29.0173 80.8975 29.8584C80.167 30.6995 79.2926 31.3249 78.2744 31.7344C77.2673 32.1328 76.1494 32.332 74.9209 32.332C73.9359 32.332 73.0173 32.2048 72.165 31.9502C71.3128 31.6956 70.5436 31.3027 69.8574 30.7715C69.1823 30.2292 68.6012 29.554 68.1143 28.7461C67.6273 27.9382 67.251 26.9753 66.9854 25.8574C66.7308 24.7396 66.6035 23.4723 66.6035 22.0557V17.7559C66.6035 15.9629 66.7972 14.4245 67.1846 13.1406C67.583 11.8568 68.153 10.7943 68.8945 9.95312C69.6361 9.11198 70.5104 8.49219 71.5176 8.09375C72.5358 7.69531 73.6592 7.49609 74.8877 7.49609C75.8727 7.49609 76.7858 7.62337 77.627 7.87793C78.4792 8.13249 79.2484 8.52539 79.9346 9.05664C80.6208 9.58789 81.2018 10.2575 81.6777 11.0654C82.1647 11.8734 82.5355 12.8363 82.79 13.9541C83.0557 15.0609 83.1885 16.3281 83.1885 17.7559ZM78.0088 22.7031V17.0752C78.0088 16.2451 77.959 15.5257 77.8594 14.917C77.7708 14.2972 77.638 13.7715 77.4609 13.3398C77.2949 12.9082 77.0846 12.5596 76.8301 12.2939C76.5755 12.0283 76.2822 11.8346 75.9502 11.7129C75.6292 11.5801 75.2751 11.5137 74.8877 11.5137C74.4007 11.5137 73.9635 11.6133 73.5762 11.8125C73.1888 12.0117 72.8623 12.3271 72.5967 12.7588C72.3311 13.1794 72.1263 13.7493 71.9824 14.4688C71.8496 15.1771 71.7832 16.0459 71.7832 17.0752V22.7031C71.7832 23.5332 71.8275 24.2581 71.916 24.8779C72.0156 25.4977 72.1484 26.029 72.3145 26.4717C72.4915 26.9033 72.7074 27.2575 72.9619 27.5342C73.2165 27.7998 73.5098 27.9935 73.8418 28.1152C74.1738 28.237 74.5335 28.2979 74.9209 28.2979C75.4079 28.2979 75.8395 28.2038 76.2158 28.0156C76.5921 27.8164 76.9131 27.501 77.1787 27.0693C77.4554 26.6266 77.6602 26.0456 77.793 25.3262C77.9368 24.6068 78.0088 23.7324 78.0088 22.7031ZM98.5781 14.0371V18.0713H89.7129V14.0371H98.5781ZM102.247 14.0371V32H97.0674V14.0371H102.247ZM88.4014 14.0371H93.4814L92.9834 23.1846C92.917 24.4795 92.7731 25.6139 92.5518 26.5879C92.3415 27.5618 92.0537 28.3919 91.6885 29.0781C91.3343 29.7643 90.9082 30.3232 90.4102 30.7549C89.9121 31.1865 89.3421 31.502 88.7002 31.7012C88.0693 31.9004 87.3776 32 86.625 32H85.0479L84.9648 27.9658L85.5791 27.8994C85.9111 27.8662 86.1989 27.7666 86.4424 27.6006C86.6969 27.4346 86.9128 27.1966 87.0898 26.8867C87.278 26.5768 87.4385 26.1784 87.5713 25.6914C87.7041 25.2044 87.8092 24.6344 87.8867 23.9814C87.9753 23.3174 88.0361 22.5537 88.0693 21.6904L88.4014 14.0371Z" fill="#FF2A00"/>
</svg>
