<svg width="170" height="75" viewBox="0 0 170 75" fill="none" xmlns="http://www.w3.org/2000/svg">
<rect y="47" width="170" height="28" rx="14" fill="#E4DDD5"/>
<rect y="47" width="94" height="28" rx="14" fill="#FFEE00"/>
<path d="M49.5371 25.3594C49.5371 26.8867 49.1774 28.1706 48.458 29.2109C47.7386 30.2513 46.7536 31.0316 45.5029 31.5518C44.2633 32.0719 42.8467 32.332 41.2529 32.332C39.6702 32.332 38.248 32.0719 36.9863 31.5518C35.7357 31.0316 34.7451 30.2513 34.0146 29.2109C33.2842 28.1706 32.9189 26.8867 32.9189 25.3594C32.9189 24.319 33.1237 23.3838 33.5332 22.5537C33.9538 21.7236 34.5348 21.0153 35.2764 20.4287C36.029 19.8421 36.9089 19.3939 37.916 19.084C38.9342 18.7741 40.0355 18.6191 41.2197 18.6191C42.8135 18.6191 44.2357 18.8958 45.4863 19.4492C46.748 19.9915 47.7386 20.7663 48.458 21.7734C49.1774 22.7806 49.5371 23.9759 49.5371 25.3594ZM44.3242 24.9775C44.3242 24.2692 44.1914 23.6715 43.9258 23.1846C43.6712 22.6865 43.3115 22.3047 42.8467 22.0391C42.3818 21.7624 41.8395 21.624 41.2197 21.624C40.5999 21.624 40.0576 21.7624 39.5928 22.0391C39.1279 22.3047 38.7627 22.6865 38.4971 23.1846C38.2425 23.6715 38.1152 24.2692 38.1152 24.9775C38.1152 25.6637 38.248 26.2614 38.5137 26.7705C38.7793 27.2686 39.1445 27.6504 39.6094 27.916C40.0742 28.1706 40.6221 28.2979 41.2529 28.2979C41.8838 28.2979 42.4261 28.1706 42.8799 27.916C43.3337 27.6504 43.6878 27.2686 43.9424 26.7705C44.1969 26.2614 44.3242 25.6637 44.3242 24.9775ZM49.0225 14.2529C49.0225 15.5036 48.6904 16.6048 48.0264 17.5566C47.3734 18.4974 46.4603 19.2334 45.2871 19.7646C44.1139 20.2848 42.7692 20.5449 41.2529 20.5449C39.7367 20.5449 38.3864 20.2848 37.2021 19.7646C36.029 19.2334 35.1048 18.4974 34.4297 17.5566C33.7656 16.6048 33.4336 15.5036 33.4336 14.2529C33.4336 12.792 33.7656 11.5579 34.4297 10.5508C35.1048 9.54362 36.029 8.77995 37.2021 8.25977C38.3753 7.73958 39.7145 7.47949 41.2197 7.47949C42.7471 7.47949 44.0973 7.73958 45.2705 8.25977C46.4437 8.77995 47.3623 9.54362 48.0264 10.5508C48.6904 11.5579 49.0225 12.792 49.0225 14.2529ZM43.8428 14.5186C43.8428 13.9098 43.7376 13.3841 43.5273 12.9414C43.3281 12.4876 43.0348 12.139 42.6475 11.8955C42.2601 11.641 41.7842 11.5137 41.2197 11.5137C40.6774 11.5137 40.2126 11.6354 39.8252 11.8789C39.4378 12.1113 39.139 12.4544 38.9287 12.9082C38.7295 13.3509 38.6299 13.8877 38.6299 14.5186C38.6299 15.1383 38.7295 15.6807 38.9287 16.1455C39.139 16.5993 39.4378 16.959 39.8252 17.2246C40.2236 17.4792 40.6995 17.6064 41.2529 17.6064C41.8174 17.6064 42.2878 17.4792 42.6641 17.2246C43.0514 16.959 43.3447 16.5993 43.5439 16.1455C43.7432 15.6807 43.8428 15.1383 43.8428 14.5186ZM73.5596 7.5293H74.3564V11.6465H74.0576C72.8955 11.6465 71.833 11.8125 70.8701 12.1445C69.9183 12.4766 69.0938 12.9691 68.3965 13.6221C67.6992 14.264 67.1624 15.0609 66.7861 16.0127C66.4209 16.9535 66.2383 18.0381 66.2383 19.2666V23.3838C66.2383 24.2139 66.3102 24.9388 66.4541 25.5586C66.609 26.1673 66.8304 26.6764 67.1182 27.0859C67.417 27.4844 67.7767 27.7887 68.1973 27.999C68.6178 28.1982 69.0938 28.2979 69.625 28.2979C70.1009 28.2979 70.5381 28.1927 70.9365 27.9824C71.335 27.7721 71.6781 27.4733 71.9658 27.0859C72.2536 26.6986 72.4749 26.2503 72.6299 25.7412C72.7848 25.221 72.8623 24.6566 72.8623 24.0479C72.8623 23.4059 72.7793 22.8249 72.6133 22.3047C72.4583 21.7734 72.2314 21.3197 71.9326 20.9434C71.6449 20.5671 71.2907 20.2793 70.8701 20.0801C70.4495 19.8698 69.9847 19.7646 69.4756 19.7646C68.7451 19.7646 68.1143 19.9307 67.583 20.2627C67.0518 20.5947 66.6423 21.0208 66.3545 21.541C66.0667 22.0612 65.9173 22.5924 65.9062 23.1348L64.5283 21.9893C64.5283 21.2367 64.6777 20.4951 64.9766 19.7646C65.2865 19.0231 65.7236 18.3535 66.2881 17.7559C66.8525 17.1471 67.5443 16.6657 68.3633 16.3115C69.1934 15.9463 70.1396 15.7637 71.2021 15.7637C72.32 15.7637 73.305 15.9795 74.1572 16.4111C75.0094 16.8317 75.7233 17.4183 76.2988 18.1709C76.8854 18.9235 77.3226 19.8034 77.6104 20.8105C77.9092 21.8066 78.0586 22.8747 78.0586 24.0146C78.0586 25.1878 77.8538 26.2835 77.4443 27.3018C77.0459 28.3089 76.4814 29.1888 75.751 29.9414C75.0205 30.694 74.1462 31.2806 73.1279 31.7012C72.1208 32.1217 70.9974 32.332 69.7578 32.332C68.474 32.332 67.3008 32.1051 66.2383 31.6514C65.1868 31.1976 64.2682 30.5501 63.4824 29.709C62.7077 28.8568 62.1045 27.8385 61.6729 26.6543C61.2523 25.4701 61.042 24.1419 61.042 22.6699V20.7275C61.042 18.7132 61.3519 16.8981 61.9717 15.2822C62.6025 13.6663 63.4769 12.2829 64.5947 11.1318C65.7236 9.96973 67.0518 9.07878 68.5791 8.45898C70.1064 7.83919 71.7666 7.5293 73.5596 7.5293ZM85.3467 21.1094L81.2295 20.1299L82.6406 7.82812H96.4863V11.9287H86.8906L86.3096 17.0254C86.6084 16.8483 87.0788 16.6546 87.7207 16.4443C88.3626 16.223 89.082 16.1123 89.8789 16.1123C91.0632 16.1123 92.1146 16.2949 93.0332 16.6602C93.9518 17.0254 94.7266 17.5566 95.3574 18.2539C95.9993 18.9401 96.4808 19.7868 96.8018 20.7939C97.1338 21.8011 97.2998 22.9466 97.2998 24.2305C97.2998 25.293 97.1338 26.3112 96.8018 27.2852C96.4697 28.248 95.9606 29.1113 95.2744 29.875C94.5993 30.6276 93.7415 31.2253 92.7012 31.668C91.6608 32.1107 90.4378 32.332 89.0322 32.332C87.9697 32.332 86.9404 32.1715 85.9443 31.8506C84.9482 31.5296 84.0518 31.0648 83.2549 30.4561C82.4691 29.8363 81.8438 29.0837 81.3789 28.1982C80.9251 27.3128 80.6927 26.3167 80.6816 25.21H85.8613C85.9167 25.8519 86.0771 26.4053 86.3428 26.8701C86.6084 27.3239 86.9681 27.6781 87.4219 27.9326C87.8757 28.1761 88.4014 28.2979 88.999 28.2979C89.5745 28.2979 90.0615 28.1872 90.46 27.9658C90.8584 27.7334 91.1738 27.418 91.4062 27.0195C91.6497 26.6211 91.8268 26.1562 91.9375 25.625C92.0482 25.0938 92.1035 24.5238 92.1035 23.915C92.1035 23.2842 92.0316 22.7197 91.8877 22.2217C91.7438 21.7126 91.5225 21.2809 91.2236 20.9268C90.9248 20.5615 90.543 20.2848 90.0781 20.0967C89.6243 19.8975 89.0765 19.7979 88.4346 19.7979C87.5934 19.7979 86.9349 19.9362 86.459 20.2129C85.9831 20.4896 85.6123 20.7884 85.3467 21.1094ZM112.357 7.81152V32H107.161V13.7217L101.55 15.4316V11.4141L111.843 7.81152H112.357ZM132.246 14.0371V18.0713H123.381V14.0371H132.246ZM135.915 14.0371V32H130.735V14.0371H135.915ZM122.069 14.0371H127.149L126.651 23.1846C126.585 24.4795 126.441 25.6139 126.22 26.5879C126.009 27.5618 125.722 28.3919 125.356 29.0781C125.002 29.7643 124.576 30.3232 124.078 30.7549C123.58 31.1865 123.01 31.502 122.368 31.7012C121.737 31.9004 121.046 32 120.293 32H118.716L118.633 27.9658L119.247 27.8994C119.579 27.8662 119.867 27.7666 120.11 27.6006C120.365 27.4346 120.581 27.1966 120.758 26.8867C120.946 26.5768 121.106 26.1784 121.239 25.6914C121.372 25.2044 121.477 24.6344 121.555 23.9814C121.643 23.3174 121.704 22.5537 121.737 21.6904L122.069 14.0371Z" fill="#FFEE00"/>
</svg>
