<svg width="170" height="75" viewBox="0 0 170 75" fill="none" xmlns="http://www.w3.org/2000/svg">
<rect y="47" width="170" height="28" rx="14" fill="#E4DDD5"/>
<rect y="47" width="62" height="28" rx="14" fill="#FF8800"/>
<path d="M40.8232 22.7695V26.7871H23.4248L23.1426 23.6328L33.0371 7.82812H37.1377L32.6885 15.1992L28.1895 22.7695H40.8232ZM38.2334 7.82812V32H33.0537V7.82812H38.2334ZM63.8662 7.81152V32H58.6699V13.7217L53.0586 15.4316V11.4141L63.3516 7.81152H63.8662ZM74.9229 28.0986H75.2549C76.4723 28.0986 77.5404 27.9603 78.459 27.6836C79.3776 27.3958 80.1468 26.9697 80.7666 26.4053C81.3975 25.8298 81.8734 25.1159 82.1943 24.2637C82.5153 23.4004 82.6758 22.3822 82.6758 21.209V16.4277C82.6758 15.5977 82.5983 14.8783 82.4434 14.2695C82.2995 13.6497 82.0837 13.1351 81.7959 12.7256C81.5081 12.3161 81.1706 12.0117 80.7832 11.8125C80.3958 11.6133 79.9697 11.5137 79.5049 11.5137C79.0179 11.5137 78.5863 11.641 78.21 11.8955C77.8447 12.1501 77.5293 12.4932 77.2637 12.9248C76.998 13.3564 76.7988 13.8434 76.666 14.3857C76.5332 14.9281 76.4668 15.4814 76.4668 16.0459C76.4668 16.6546 76.5332 17.2246 76.666 17.7559C76.8099 18.2871 77.0146 18.752 77.2803 19.1504C77.5459 19.5488 77.8835 19.8643 78.293 20.0967C78.7025 20.318 79.1784 20.4287 79.7207 20.4287C80.263 20.4287 80.7334 20.3291 81.1318 20.1299C81.5413 19.9307 81.8844 19.665 82.1611 19.333C82.4489 19.001 82.6647 18.6413 82.8086 18.2539C82.9525 17.8555 83.0244 17.4626 83.0244 17.0752L84.6182 18.1377C84.6182 18.8792 84.4521 19.6097 84.1201 20.3291C83.7992 21.0485 83.3509 21.7015 82.7754 22.2881C82.1999 22.8747 81.5303 23.3451 80.7666 23.6992C80.014 24.0423 79.2116 24.2139 78.3594 24.2139C77.2526 24.2139 76.2565 24.0146 75.3711 23.6162C74.4967 23.2178 73.7552 22.6589 73.1465 21.9395C72.5378 21.209 72.0729 20.3457 71.752 19.3496C71.431 18.3535 71.2705 17.2578 71.2705 16.0625C71.2705 14.8893 71.4697 13.7881 71.8682 12.7588C72.2666 11.7184 72.8311 10.8053 73.5615 10.0195C74.292 9.23372 75.1608 8.61393 76.168 8.16016C77.1862 7.70638 78.3096 7.47949 79.5381 7.47949C80.7445 7.47949 81.8512 7.71191 82.8584 8.17676C83.8656 8.63053 84.7454 9.28353 85.498 10.1357C86.2507 10.988 86.8317 12.0228 87.2412 13.2402C87.6618 14.4577 87.8721 15.8301 87.8721 17.3574V19.1504C87.8721 20.7884 87.6839 22.2936 87.3076 23.666C86.9313 25.0384 86.3779 26.2559 85.6475 27.3184C84.9281 28.3809 84.0537 29.2829 83.0244 30.0244C82.0062 30.766 80.8496 31.3304 79.5547 31.7178C78.2708 32.0941 76.8652 32.2822 75.3379 32.2822H74.9229V28.0986ZM107.628 25.3594C107.628 26.8867 107.268 28.1706 106.549 29.2109C105.829 30.2513 104.844 31.0316 103.594 31.5518C102.354 32.0719 100.938 32.332 99.3438 32.332C97.7611 32.332 96.3389 32.0719 95.0771 31.5518C93.8265 31.0316 92.8359 30.2513 92.1055 29.2109C91.375 28.1706 91.0098 26.8867 91.0098 25.3594C91.0098 24.319 91.2145 23.3838 91.624 22.5537C92.0446 21.7236 92.6257 21.0153 93.3672 20.4287C94.1198 19.8421 94.9997 19.3939 96.0068 19.084C97.0251 18.7741 98.1263 18.6191 99.3105 18.6191C100.904 18.6191 102.326 18.8958 103.577 19.4492C104.839 19.9915 105.829 20.7663 106.549 21.7734C107.268 22.7806 107.628 23.9759 107.628 25.3594ZM102.415 24.9775C102.415 24.2692 102.282 23.6715 102.017 23.1846C101.762 22.6865 101.402 22.3047 100.938 22.0391C100.473 21.7624 99.9303 21.624 99.3105 21.624C98.6908 21.624 98.1484 21.7624 97.6836 22.0391C97.2188 22.3047 96.8535 22.6865 96.5879 23.1846C96.3333 23.6715 96.2061 24.2692 96.2061 24.9775C96.2061 25.6637 96.3389 26.2614 96.6045 26.7705C96.8701 27.2686 97.2354 27.6504 97.7002 27.916C98.165 28.1706 98.7129 28.2979 99.3438 28.2979C99.9746 28.2979 100.517 28.1706 100.971 27.916C101.424 27.6504 101.779 27.2686 102.033 26.7705C102.288 26.2614 102.415 25.6637 102.415 24.9775ZM107.113 14.2529C107.113 15.5036 106.781 16.6048 106.117 17.5566C105.464 18.4974 104.551 19.2334 103.378 19.7646C102.205 20.2848 100.86 20.5449 99.3438 20.5449C97.8275 20.5449 96.4772 20.2848 95.293 19.7646C94.1198 19.2334 93.1956 18.4974 92.5205 17.5566C91.8564 16.6048 91.5244 15.5036 91.5244 14.2529C91.5244 12.792 91.8564 11.5579 92.5205 10.5508C93.1956 9.54362 94.1198 8.77995 95.293 8.25977C96.4661 7.73958 97.8053 7.47949 99.3105 7.47949C100.838 7.47949 102.188 7.73958 103.361 8.25977C104.535 8.77995 105.453 9.54362 106.117 10.5508C106.781 11.5579 107.113 12.792 107.113 14.2529ZM101.934 14.5186C101.934 13.9098 101.828 13.3841 101.618 12.9414C101.419 12.4876 101.126 12.139 100.738 11.8955C100.351 11.641 99.875 11.5137 99.3105 11.5137C98.7682 11.5137 98.3034 11.6354 97.916 11.8789C97.5286 12.1113 97.2298 12.4544 97.0195 12.9082C96.8203 13.3509 96.7207 13.8877 96.7207 14.5186C96.7207 15.1383 96.8203 15.6807 97.0195 16.1455C97.2298 16.5993 97.5286 16.959 97.916 17.2246C98.3145 17.4792 98.7904 17.6064 99.3438 17.6064C99.9082 17.6064 100.379 17.4792 100.755 17.2246C101.142 16.959 101.436 16.5993 101.635 16.1455C101.834 15.6807 101.934 15.1383 101.934 14.5186ZM121.938 26.1562L126.338 14.0371H130.455L123.682 32H120.212L113.472 14.0371H117.589L121.938 26.1562ZM116.394 14.0371V32H111.197V14.0371H116.394ZM127.666 32V14.0371H132.846V32H127.666ZM139.669 13.0908H141.163C141.573 13.0908 141.905 13.0355 142.159 12.9248C142.414 12.8031 142.607 12.637 142.74 12.4268C142.873 12.2054 142.939 11.9508 142.939 11.6631C142.939 11.3753 142.812 11.0986 142.558 10.833C142.314 10.5563 141.877 10.418 141.246 10.418C140.814 10.418 140.438 10.501 140.117 10.667C139.807 10.833 139.652 11.071 139.652 11.3809H136.116C136.116 10.5508 136.349 9.85905 136.813 9.30566C137.289 8.75228 137.909 8.33724 138.673 8.06055C139.437 7.77279 140.256 7.62891 141.13 7.62891C142.181 7.62891 143.105 7.77279 143.902 8.06055C144.71 8.34831 145.341 8.77441 145.795 9.33887C146.249 9.89225 146.476 10.5785 146.476 11.3975C146.476 12.0837 146.26 12.6647 145.828 13.1406C145.396 13.6165 144.821 13.9818 144.102 14.2363C143.393 14.4798 142.607 14.6016 141.744 14.6016H139.669V13.0908ZM139.669 15.3818V13.9375H141.744C142.685 13.9375 143.526 14.0371 144.268 14.2363C145.02 14.4245 145.618 14.762 146.061 15.249C146.503 15.7249 146.725 16.389 146.725 17.2412C146.725 18.0602 146.476 18.7575 145.978 19.333C145.479 19.9085 144.81 20.3512 143.969 20.6611C143.128 20.96 142.181 21.1094 141.13 21.1094C140.311 21.1094 139.497 20.9766 138.689 20.7109C137.882 20.4453 137.206 20.0081 136.664 19.3994C136.122 18.7907 135.851 17.9827 135.851 16.9756H139.42C139.42 17.3187 139.591 17.6286 139.935 17.9053C140.289 18.182 140.77 18.3203 141.379 18.3203C142.021 18.3203 142.48 18.1764 142.757 17.8887C143.034 17.6009 143.172 17.2689 143.172 16.8926C143.172 16.5163 143.089 16.223 142.923 16.0127C142.768 15.7913 142.535 15.6309 142.226 15.5312C141.927 15.4316 141.573 15.3818 141.163 15.3818H139.669Z" fill="#FF8800"/>
</svg>
