<svg width="170" height="75" viewBox="0 0 170 75" fill="none" xmlns="http://www.w3.org/2000/svg">
<rect y="47" width="170" height="28" rx="14" fill="#E4DDD5"/>
<rect y="47" width="170" height="28" rx="14" fill="#5CBA2F"/>
<path d="M35.21 7.81152V32H30.0137V13.7217L24.4023 15.4316V11.4141L34.6953 7.81152H35.21ZM47.8105 17.7061H50.4502C51.2028 17.7061 51.8226 17.5732 52.3096 17.3076C52.8076 17.042 53.1729 16.6657 53.4053 16.1787C53.6488 15.6917 53.7705 15.1217 53.7705 14.4688C53.7705 13.9043 53.6598 13.4007 53.4385 12.958C53.2171 12.5153 52.8796 12.1667 52.4258 11.9121C51.9831 11.6465 51.4076 11.5137 50.6992 11.5137C50.1901 11.5137 49.7031 11.6188 49.2383 11.8291C48.7845 12.0283 48.4137 12.3216 48.126 12.709C47.8382 13.0853 47.6943 13.5391 47.6943 14.0703H42.498C42.498 12.7201 42.8633 11.5524 43.5938 10.5674C44.3353 9.58236 45.3148 8.82422 46.5322 8.29297C47.7607 7.75065 49.0999 7.47949 50.5498 7.47949C52.221 7.47949 53.6875 7.74512 54.9492 8.27637C56.222 8.79655 57.207 9.57129 57.9043 10.6006C58.6126 11.6188 58.9668 12.8805 58.9668 14.3857C58.9668 15.1715 58.7786 15.9297 58.4023 16.6602C58.0371 17.3796 57.5114 18.0215 56.8252 18.5859C56.1501 19.1393 55.3421 19.582 54.4014 19.9141C53.4717 20.235 52.4368 20.3955 51.2969 20.3955H47.8105V17.7061ZM47.8105 21.6074V18.9678H51.2969C52.5586 18.9678 53.6875 19.1117 54.6836 19.3994C55.6797 19.6872 56.5264 20.1022 57.2236 20.6445C57.9209 21.1868 58.4521 21.8454 58.8174 22.6201C59.1826 23.3949 59.3652 24.2581 59.3652 25.21C59.3652 26.3389 59.1439 27.346 58.7012 28.2314C58.2585 29.1169 57.6387 29.8639 56.8418 30.4727C56.0449 31.0814 55.1097 31.5462 54.0361 31.8672C52.9626 32.1771 51.8005 32.332 50.5498 32.332C49.5426 32.332 48.541 32.1937 47.5449 31.917C46.5488 31.6403 45.6468 31.2197 44.8389 30.6553C44.0309 30.0798 43.3835 29.3548 42.8965 28.4805C42.4095 27.5951 42.166 26.5436 42.166 25.3262H47.3623C47.3623 25.8906 47.5062 26.3997 47.7939 26.8535C48.0928 27.2962 48.4967 27.6504 49.0059 27.916C49.526 28.1706 50.0905 28.2979 50.6992 28.2979C51.4297 28.2979 52.0495 28.165 52.5586 27.8994C53.0788 27.6227 53.4717 27.2464 53.7373 26.7705C54.014 26.2946 54.1523 25.7467 54.1523 25.127C54.1523 24.2858 54.0029 23.6107 53.7041 23.1016C53.4163 22.5814 52.9958 22.2051 52.4424 21.9727C51.889 21.7292 51.2249 21.6074 50.4502 21.6074H47.8105ZM87.4219 17.7559V22.0557C87.4219 23.8265 87.2227 25.3594 86.8242 26.6543C86.4368 27.9492 85.8724 29.0173 85.1309 29.8584C84.4004 30.6995 83.526 31.3249 82.5078 31.7344C81.5007 32.1328 80.3828 32.332 79.1543 32.332C78.1693 32.332 77.2507 32.2048 76.3984 31.9502C75.5462 31.6956 74.777 31.3027 74.0908 30.7715C73.4157 30.2292 72.8346 29.554 72.3477 28.7461C71.8607 27.9382 71.4844 26.9753 71.2188 25.8574C70.9642 24.7396 70.8369 23.4723 70.8369 22.0557V17.7559C70.8369 15.9629 71.0306 14.4245 71.418 13.1406C71.8164 11.8568 72.3864 10.7943 73.1279 9.95312C73.8695 9.11198 74.7438 8.49219 75.751 8.09375C76.7692 7.69531 77.8926 7.49609 79.1211 7.49609C80.1061 7.49609 81.0192 7.62337 81.8604 7.87793C82.7126 8.13249 83.4818 8.52539 84.168 9.05664C84.8542 9.58789 85.4352 10.2575 85.9111 11.0654C86.3981 11.8734 86.7689 12.8363 87.0234 13.9541C87.2891 15.0609 87.4219 16.3281 87.4219 17.7559ZM82.2422 22.7031V17.0752C82.2422 16.2451 82.1924 15.5257 82.0928 14.917C82.0042 14.2972 81.8714 13.7715 81.6943 13.3398C81.5283 12.9082 81.318 12.5596 81.0635 12.2939C80.8089 12.0283 80.5156 11.8346 80.1836 11.7129C79.8626 11.5801 79.5085 11.5137 79.1211 11.5137C78.6341 11.5137 78.1969 11.6133 77.8096 11.8125C77.4222 12.0117 77.0957 12.3271 76.8301 12.7588C76.5645 13.1794 76.3597 13.7493 76.2158 14.4688C76.083 15.1771 76.0166 16.0459 76.0166 17.0752V22.7031C76.0166 23.5332 76.0609 24.2581 76.1494 24.8779C76.249 25.4977 76.3818 26.029 76.5479 26.4717C76.7249 26.9033 76.9408 27.2575 77.1953 27.5342C77.4499 27.7998 77.7432 27.9935 78.0752 28.1152C78.4072 28.237 78.7669 28.2979 79.1543 28.2979C79.6413 28.2979 80.0729 28.2038 80.4492 28.0156C80.8255 27.8164 81.1465 27.501 81.4121 27.0693C81.6888 26.6266 81.8936 26.0456 82.0264 25.3262C82.1702 24.6068 82.2422 23.7324 82.2422 22.7031ZM107.045 17.7559V22.0557C107.045 23.8265 106.846 25.3594 106.447 26.6543C106.06 27.9492 105.495 29.0173 104.754 29.8584C104.023 30.6995 103.149 31.3249 102.131 31.7344C101.124 32.1328 100.006 32.332 98.7773 32.332C97.7923 32.332 96.8737 32.2048 96.0215 31.9502C95.1693 31.6956 94.4001 31.3027 93.7139 30.7715C93.0387 30.2292 92.4577 29.554 91.9707 28.7461C91.4837 27.9382 91.1074 26.9753 90.8418 25.8574C90.5872 24.7396 90.46 23.4723 90.46 22.0557V17.7559C90.46 15.9629 90.6536 14.4245 91.041 13.1406C91.4395 11.8568 92.0094 10.7943 92.751 9.95312C93.4925 9.11198 94.3669 8.49219 95.374 8.09375C96.3923 7.69531 97.5156 7.49609 98.7441 7.49609C99.7292 7.49609 100.642 7.62337 101.483 7.87793C102.336 8.13249 103.105 8.52539 103.791 9.05664C104.477 9.58789 105.058 10.2575 105.534 11.0654C106.021 11.8734 106.392 12.8363 106.646 13.9541C106.912 15.0609 107.045 16.3281 107.045 17.7559ZM101.865 22.7031V17.0752C101.865 16.2451 101.815 15.5257 101.716 14.917C101.627 14.2972 101.494 13.7715 101.317 13.3398C101.151 12.9082 100.941 12.5596 100.687 12.2939C100.432 12.0283 100.139 11.8346 99.8066 11.7129C99.4857 11.5801 99.1315 11.5137 98.7441 11.5137C98.2572 11.5137 97.82 11.6133 97.4326 11.8125C97.0452 12.0117 96.7188 12.3271 96.4531 12.7588C96.1875 13.1794 95.9827 13.7493 95.8389 14.4688C95.7061 15.1771 95.6396 16.0459 95.6396 17.0752V22.7031C95.6396 23.5332 95.6839 24.2581 95.7725 24.8779C95.8721 25.4977 96.0049 26.029 96.1709 26.4717C96.348 26.9033 96.5638 27.2575 96.8184 27.5342C97.0729 27.7998 97.3662 27.9935 97.6982 28.1152C98.0303 28.237 98.39 28.2979 98.7773 28.2979C99.2643 28.2979 99.696 28.2038 100.072 28.0156C100.449 27.8164 100.77 27.501 101.035 27.0693C101.312 26.6266 101.517 26.0456 101.649 25.3262C101.793 24.6068 101.865 23.7324 101.865 22.7031ZM126.668 17.7559V22.0557C126.668 23.8265 126.469 25.3594 126.07 26.6543C125.683 27.9492 125.118 29.0173 124.377 29.8584C123.646 30.6995 122.772 31.3249 121.754 31.7344C120.747 32.1328 119.629 32.332 118.4 32.332C117.415 32.332 116.497 32.2048 115.645 31.9502C114.792 31.6956 114.023 31.3027 113.337 30.7715C112.662 30.2292 112.081 29.554 111.594 28.7461C111.107 27.9382 110.73 26.9753 110.465 25.8574C110.21 24.7396 110.083 23.4723 110.083 22.0557V17.7559C110.083 15.9629 110.277 14.4245 110.664 13.1406C111.062 11.8568 111.632 10.7943 112.374 9.95312C113.116 9.11198 113.99 8.49219 114.997 8.09375C116.015 7.69531 117.139 7.49609 118.367 7.49609C119.352 7.49609 120.265 7.62337 121.106 7.87793C121.959 8.13249 122.728 8.52539 123.414 9.05664C124.1 9.58789 124.681 10.2575 125.157 11.0654C125.644 11.8734 126.015 12.8363 126.27 13.9541C126.535 15.0609 126.668 16.3281 126.668 17.7559ZM121.488 22.7031V17.0752C121.488 16.2451 121.438 15.5257 121.339 14.917C121.25 14.2972 121.118 13.7715 120.94 13.3398C120.774 12.9082 120.564 12.5596 120.31 12.2939C120.055 12.0283 119.762 11.8346 119.43 11.7129C119.109 11.5801 118.755 11.5137 118.367 11.5137C117.88 11.5137 117.443 11.6133 117.056 11.8125C116.668 12.0117 116.342 12.3271 116.076 12.7588C115.811 13.1794 115.606 13.7493 115.462 14.4688C115.329 15.1771 115.263 16.0459 115.263 17.0752V22.7031C115.263 23.5332 115.307 24.2581 115.396 24.8779C115.495 25.4977 115.628 26.029 115.794 26.4717C115.971 26.9033 116.187 27.2575 116.441 27.5342C116.696 27.7998 116.989 27.9935 117.321 28.1152C117.653 28.237 118.013 28.2979 118.4 28.2979C118.887 28.2979 119.319 28.2038 119.695 28.0156C120.072 27.8164 120.393 27.501 120.658 27.0693C120.935 26.6266 121.14 26.0456 121.272 25.3262C121.416 24.6068 121.488 23.7324 121.488 22.7031ZM142.058 14.0371V18.0713H133.192V14.0371H142.058ZM145.727 14.0371V32H140.547V14.0371H145.727ZM131.881 14.0371H136.961L136.463 23.1846C136.396 24.4795 136.253 25.6139 136.031 26.5879C135.821 27.5618 135.533 28.3919 135.168 29.0781C134.814 29.7643 134.388 30.3232 133.89 30.7549C133.392 31.1865 132.822 31.502 132.18 31.7012C131.549 31.9004 130.857 32 130.104 32H128.527L128.444 27.9658L129.059 27.8994C129.391 27.8662 129.678 27.7666 129.922 27.6006C130.176 27.4346 130.392 27.1966 130.569 26.8867C130.757 26.5768 130.918 26.1784 131.051 25.6914C131.184 25.2044 131.289 24.6344 131.366 23.9814C131.455 23.3174 131.516 22.5537 131.549 21.6904L131.881 14.0371Z" fill="#5CBA2F"/>
</svg>
